  0
SECTION
  2
HEADER
  9
$ACADVER
  1
AC1009
  9
$INSBASE
 10
0.0
 20
0.0
 30
0.0
  9
$EXTMIN
 10
0.0
 20
0.0
 30
0.0
  9
$EXTMAX
 10
0.0
 20
0.0
 30
0.0
  9
$LIMMIN
 10
0.0
 20
0.0
  9
$LIMMAX
 10
12.0
 20
9.0
  9
$ORTHOMODE
 70
     0
  9
$REGENMODE
 70
     1
  9
$FILLMODE
 70
     1
  9
$QTEXTMODE
 70
     0
  9
$MIRRTEXT
 70
     0
  9
$DRAGMODE
 70
     2
  9
$LTSCALE
 40
1.0
  9
$OSMODE
 70
    37
  9
$ATTMODE
 70
     1
  9
$TEXTSIZE
 40
0.2
  9
$TRACEWID
 40
0.05
  9
$TEXTSTYLE
  7
STANDARD
  9
$CLAYER
  8
0
  9
$CELTYPE
  6
BYLAYER
  9
$CECOLOR
 62
   256
  9
$DIMSCALE
 40
1.0
  9
$DIMASZ
 40
0.18
  9
$DIMEXO
 40
0.0625
  9
$DIMDLI
 40
0.38
  9
$DIMRND
 40
0.0
  9
$DIMDLE
 40
0.0
  9
$DIMEXE
 40
0.18
  9
$DIMTP
 40
0.0
  9
$DIMTM
 40
0.0
  9
$DIMTXT
 40
0.18
  9
$DIMCEN
 40
0.09
  9
$DIMTSZ
 40
0.0
  9
$DIMTOL
 70
     0
  9
$DIMLIM
 70
     0
  9
$DIMTIH
 70
     1
  9
$DIMTOH
 70
     1
  9
$DIMSE1
 70
     0
  9
$DIMSE2
 70
     0
  9
$DIMTAD
 70
     0
  9
$DIMZIN
 70
     0
  9
$DIMBLK
  1

  9
$DIMASO
 70
     1
  9
$DIMSHO
 70
     1
  9
$DIMPOST
  1

  9
$DIMAPOST
  1

  9
$DIMALT
 70
     0
  9
$DIMALTD
 70
     2
  9
$DIMALTF
 40
25.4
  9
$DIMLFAC
 40
1.0
  9
$DIMTOFL
 70
     0
  9
$DIMTVP
 40
0.0
  9
$DIMTIX
 70
     0
  9
$DIMSOXD
 70
     0
  9
$DIMSAH
 70
     0
  9
$DIMBLK1
  1

  9
$DIMBLK2
  1

  9
$DIMSTYLE
  2
STANDARD
  9
$DIMCLRD
 70
     0
  9
$DIMCLRE
 70
     0
  9
$DIMCLRT
 70
     0
  9
$DIMTFAC
 40
1.0
  9
$DIMGAP
 40
0.09
  9
$LUNITS
 70
     2
  9
$LUPREC
 70
     4
  9
$SKETCHINC
 40
0.1
  9
$FILLETRAD
 40
0.0
  9
$AUNITS
 70
     0
  9
$AUPREC
 70
     0
  9
$MENU
  1
.
  9
$ELEVATION
 40
0.0
  9
$PELEVATION
 40
0.0
  9
$THICKNESS
 40
0.0
  9
$LIMCHECK
 70
     0
  9
$BLIPMODE
 70
     0
  9
$CHAMFERA
 40
0.0
  9
$CHAMFERB
 40
0.0
  9
$SKPOLY
 70
     0
  9
$TDCREATE
 40
2461138.750451388769
  9
$TDUPDATE
 40
2461138.750451388769
  9
$TDINDWG
 40
0.0
  9
$TDUSRTIMER
 40
0.0
  9
$USRTIMER
 70
     1
  9
$ANGBASE
 50
0.0
  9
$ANGDIR
 70
     0
  9
$PDMODE
 70
     0
  9
$PDSIZE
 40
0.0
  9
$PLINEWID
 40
0.0
  9
$COORDS
 70
     1
  9
$SPLFRAME
 70
     0
  9
$SPLINETYPE
 70
     6
  9
$SPLINESEGS
 70
     8
  9
$ATTDIA
 70
     1
  9
$ATTREQ
 70
     1
  9
$HANDLING
 70
     1
  9
$HANDSEED
  5
72
  9
$SURFTAB1
 70
     6
  9
$SURFTAB2
 70
     6
  9
$SURFTYPE
 70
     6
  9
$SURFU
 70
     6
  9
$SURFV
 70
     6
  9
$UCSNAME
  2

  9
$UCSORG
 10
0.0
 20
0.0
 30
0.0
  9
$UCSXDIR
 10
1.0
 20
0.0
 30
0.0
  9
$UCSYDIR
 10
0.0
 20
1.0
 30
0.0
  9
$PUCSNAME
  2

  9
$PUCSORG
 10
0.0
 20
0.0
 30
0.0
  9
$PUCSXDIR
 10
1.0
 20
0.0
 30
0.0
  9
$PUCSYDIR
 10
0.0
 20
1.0
 30
0.0
  9
$USERI1
 70
     0
  9
$USERI2
 70
     0
  9
$USERI3
 70
     0
  9
$USERI4
 70
     0
  9
$USERI5
 70
     0
  9
$USERR1
 40
0.0
  9
$USERR2
 40
0.0
  9
$USERR3
 40
0.0
  9
$USERR4
 40
0.0
  9
$USERR5
 40
0.0
  9
$WORLDVIEW
 70
     1
  9
$SHADEDGE
 70
     3
  9
$SHADEDIF
 70
    70
  9
$TILEMODE
 70
     1
  9
$MAXACTVP
 70
    64
  9
$PLIMCHECK
 70
     0
  9
$PEXTMIN
 10
100000000000000000000.0
 20
100000000000000000000.0
 30
100000000000000000000.0
  9
$PEXTMAX
 10
-100000000000000000000.0
 20
-100000000000000000000.0
 30
-100000000000000000000.0
  9
$PLIMMIN
 10
0.0
 20
0.0
  9
$PLIMMAX
 10
12.0
 20
9.0
  9
$UNITMODE
 70
     0
  9
$VISRETAIN
 70
     1
  9
$PLINEGEN
 70
     0
  9
$PSLTSCALE
 70
     1
  0
ENDSEC
  0
SECTION
  2
TABLES
  0
TABLE
  2
APPID
100
AcDbSymbolTable
 70
     0
  0
APPID
  5
1
100
AcDbSymbolTableRecord
100
AcDbRegAppTableRecord
  2
ACAD
 70
     0
  0
APPID
  5
2
100
AcDbSymbolTableRecord
100
AcDbRegAppTableRecord
  2
ACADANNOTATIVE
 70
     0
  0
APPID
  5
4
100
AcDbSymbolTableRecord
100
AcDbRegAppTableRecord
  2
ACAD_MLEADERVER
 70
     0
  0
APPID
  5
3
100
AcDbSymbolTableRecord
100
AcDbRegAppTableRecord
  2
ACAD_NAV_VCDISPLAY
 70
     0
  0
ENDTAB
  0
TABLE
  2
DIMSTYLE
100
AcDbSymbolTable
 70
     0
  0
DIMSTYLE
  5
A
100
AcDbSymbolTableRecord
100
AcDbDimStyleTableRecord
  2
ANNOTATIVE
 70
     0
  3

  4

  6

  7

 40
1.0
 41
0.18
 42
0.0625
 43
0.38
 44
0.18
 45
0.0
 46
0.0
 47
0.0
 48
0.0
 71
     0
 72
     0
 73
     1
 74
     1
 75
     0
 76
     0
 77
     0
 78
     0
140
0.18
141
0.09
142
0.0
143
25.4
144
1.0
145
0.0
146
1.0
147
0.09
170
     0
171
     2
172
     0
173
     0
174
     0
175
     0
176
     0
177
     0
178
     0
  0
DIMSTYLE
  5
9
100
AcDbSymbolTableRecord
100
AcDbDimStyleTableRecord
  2
STANDARD
 70
     0
  3

  4

  6

  7

 40
1.0
 41
0.18
 42
0.0625
 43
0.38
 44
0.18
 45
0.0
 46
0.0
 47
0.0
 48
0.0
 71
     0
 72
     0
 73
     1
 74
     1
 75
     0
 76
     0
 77
     0
 78
     0
140
0.18
141
0.09
142
0.0
143
25.4
144
1.0
145
0.0
146
1.0
147
0.09
170
     0
171
     2
172
     0
173
     0
174
     0
175
     0
176
     0
177
     0
178
     0
  0
ENDTAB
  0
TABLE
  2
LTYPE
100
AcDbSymbolTable
 70
     0
  0
LTYPE
  5
C
100
AcDbSymbolTableRecord
100
AcDbLinetypeTableRecord
  2
BYBLOCK
 70
     0
  3

 72
    65
 73
     0
 40
0.0
  0
LTYPE
  5
B
100
AcDbSymbolTableRecord
100
AcDbLinetypeTableRecord
  2
BYLAYER
 70
     0
  3

 72
    65
 73
     0
 40
0.0
  0
LTYPE
  5
8
100
AcDbSymbolTableRecord
100
AcDbLinetypeTableRecord
  2
CONTINUOUS
 70
     0
  3

 72
    65
 73
     0
 40
0.0
  0
ENDTAB
  0
TABLE
  2
LAYER
100
AcDbSymbolTable
 70
     0
  0
LAYER
  5
7
100
AcDbSymbolTableRecord
100
AcDbLayerTableRecord
  2
0
 70
     0
 62
     7
  6
CONTINUOUS
  0
LAYER
  5
10
100
AcDbSymbolTableRecord
100
AcDbLayerTableRecord
  2
drill_d2
 70
     0
 62
    70
  6
CONTINUOUS
  0
LAYER
  5
15
100
AcDbSymbolTableRecord
100
AcDbLayerTableRecord
  2
drill_d5
 70
     0
 62
   100
  6
CONTINUOUS
  0
LAYER
  5
24
100
AcDbSymbolTableRecord
100
AcDbLayerTableRecord
  2
drill_d8
 70
     0
 62
   140
  6
CONTINUOUS
  0
LAYER
  5
30
100
AcDbSymbolTableRecord
100
AcDbLayerTableRecord
  2
drill_slot_8x32
 70
     0
 62
     1
  6
CONTINUOUS
  0
LAYER
  5
37
100
AcDbSymbolTableRecord
100
AcDbLayerTableRecord
  2
extended_boundary
 70
     0
 62
     8
  6
CONTINUOUS
  0
LAYER
  5
3E
100
AcDbSymbolTableRecord
100
AcDbLayerTableRecord
  2
groove_8
 70
     0
 62
    40
  6
CONTINUOUS
  0
LAYER
  5
53
100
AcDbSymbolTableRecord
100
AcDbLayerTableRecord
  2
panel
 70
     0
 62
   200
  6
CONTINUOUS
  0
LAYER
  5
5A
100
AcDbSymbolTableRecord
100
AcDbLayerTableRecord
  2
close_B_2.00
 70
     0
 62
    30
  6
CONTINUOUS
  0
LAYER
  5
62
100
AcDbSymbolTableRecord
100
AcDbLayerTableRecord
  2
close_L_0.40
 70
     0
 62
    34
  6
CONTINUOUS
  0
LAYER
  5
6A
100
AcDbSymbolTableRecord
100
AcDbLayerTableRecord
  2
close_R_0.40
 70
     0
 62
    34
  6
CONTINUOUS
  0
ENDTAB
  0
TABLE
  2
STYLE
100
AcDbSymbolTable
 70
     0
  0
STYLE
  5
E
100
AcDbSymbolTableRecord
100
AcDbTextStyleTableRecord
  2
ANNOTATIVE
 70
     0
 40
0.0
 41
1.0
 50
0.0
 71
     0
 42
0.2
  3
txt
  4

  0
STYLE
  5
D
100
AcDbSymbolTableRecord
100
AcDbTextStyleTableRecord
  2
STANDARD
 70
     0
 40
0.0
 41
1.0
 50
0.0
 71
     0
 42
0.2
  3
txt
  4

  0
ENDTAB
  0
TABLE
  2
VPORT
100
AcDbSymbolTable
 70
     0
  0
VPORT
  5
F
100
AcDbSymbolTableRecord
100
AcDbViewportTableRecord
  2
*ACTIVE
 70
     0
 10
0.0
 20
0.0
 11
1.0
 21
1.0
 12
0.0
 22
0.0
 13
0.0
 23
0.0
 14
1.0
 24
1.0
 15
1.0
 25
1.0
 16
0.0
 26
0.0
 36
1.0
 17
0.0
 27
0.0
 37
0.0
 40
1.0
 41
1.0
 42
50.0
 43
0.0
 44
0.0
 50
0.0
 51
0.0
 71
     0
 72
  1000
 73
     1
 74
     3
 75
     0
 76
     0
 77
     0
 78
     0
  0
ENDTAB
  0
ENDSEC
  0
SECTION
  2
ENTITIES
  0
CIRCLE
  5
11
  8
drill_d2
 10
908.0
 20
52.0
 30
0.0
 40
1.000493761299
  0
CIRCLE
  5
12
  8
drill_d2
 10
100.0
 20
52.0
 30
0.0
 40
1.000493761299
  0
CIRCLE
  5
13
  8
drill_d2
 10
100.0
 20
20.0
 30
0.0
 40
1.000493761299
  0
CIRCLE
  5
14
  8
drill_d2
 10
908.0
 20
20.0
 30
0.0
 40
1.000493761299
  0
CIRCLE
  5
16
  8
drill_d5
 10
429.0
 20
590.0
 30
0.0
 40
2.500808116768
  0
CIRCLE
  5
17
  8
drill_d5
 10
9.0
 20
590.0
 30
0.0
 40
2.500808116768
  0
CIRCLE
  5
18
  8
drill_d5
 10
327.0
 20
579.0
 30
0.0
 40
2.500808116768
  0
CIRCLE
  5
19
  8
drill_d5
 10
663.0
 20
579.0
 30
0.0
 40
2.500808116768
  0
CIRCLE
  5
1A
  8
drill_d5
 10
999.0
 20
579.0
 30
0.0
 40
2.500808116768
  0
CIRCLE
  5
1B
  8
drill_d5
 10
9.0
 20
534.0
 30
0.0
 40
2.500808116768
  0
CIRCLE
  5
1C
  8
drill_d5
 10
999.0
 20
534.0
 30
0.0
 40
2.500808116768
  0
CIRCLE
  5
1D
  8
drill_d5
 10
9.0
 20
96.0
 30
0.0
 40
2.500880902926
  0
CIRCLE
  5
1E
  8
drill_d5
 10
999.0
 20
96.0
 30
0.0
 40
2.500880902926
  0
CIRCLE
  5
1F
  8
drill_d5
 10
999.0
 20
52.0
 30
0.0
 40
2.500880902926
  0
CIRCLE
  5
20
  8
drill_d5
 10
327.0
 20
52.0
 30
0.0
 40
2.500880902926
  0
CIRCLE
  5
21
  8
drill_d5
 10
663.0
 20
52.0
 30
0.0
 40
2.500880902926
  0
CIRCLE
  5
22
  8
drill_d5
 10
9.0
 20
42.0
 30
0.0
 40
2.500880902926
  0
CIRCLE
  5
23
  8
drill_d5
 10
429.0
 20
42.0
 30
0.0
 40
2.500880902926
  0
CIRCLE
  5
25
  8
drill_d8
 10
999.0
 20
562.0
 30
0.0
 40
4.000530923154
  0
CIRCLE
  5
26
  8
drill_d8
 10
429.0
 20
562.0
 30
0.0
 40
4.000574093862
  0
CIRCLE
  5
27
  8
drill_d8
 10
9.0
 20
562.0
 30
0.0
 40
4.000574093862
  0
CIRCLE
  5
28
  8
drill_d8
 10
999.0
 20
506.0
 30
0.0
 40
4.000390701949
  0
CIRCLE
  5
29
  8
drill_d8
 10
9.0
 20
506.0
 30
0.0
 40
4.000433875683
  0
CIRCLE
  5
2A
  8
drill_d8
 10
9.0
 20
124.0
 30
0.0
 40
4.000433875683
  0
CIRCLE
  5
2B
  8
drill_d8
 10
999.0
 20
124.0
 30
0.0
 40
4.000390701949
  0
CIRCLE
  5
2C
  8
drill_d8
 10
429.0
 20
70.0
 30
0.0
 40
4.000433875683
  0
CIRCLE
  5
2D
  8
drill_d8
 10
999.0
 20
68.0
 30
0.0
 40
4.000390701949
  0
CIRCLE
  5
2E
  8
drill_d8
 10
9.0
 20
14.0
 30
0.0
 40
4.000433875683
  0
CIRCLE
  5
2F
  8
drill_d8
 10
429.0
 20
14.0
 30
0.0
 40
4.000433875683
  0
POLYLINE
  5
35
  8
drill_slot_8x32
 66
     1
 10
0.0
 20
0.0
 30
0.0
 70
     1
  0
VERTEX
  5
31
  8
0
100
AcDbVertex
 10
5.0
 20
64.0
 30
0.0
 70
     0
 50
0.0
  0
VERTEX
  5
32
  8
0
100
AcDbVertex
 10
13.0
 20
64.0
 30
0.0
 70
     0
 50
0.0
  0
VERTEX
  5
33
  8
0
100
AcDbVertex
 10
13.0
 20
96.0
 30
0.0
 70
     0
 50
0.0
  0
VERTEX
  5
34
  8
0
100
AcDbVertex
 10
5.0
 20
96.0
 30
0.0
 70
     0
 50
0.0
  0
SEQEND
  5
36
  0
POLYLINE
  5
3C
  8
extended_boundary
 66
     1
 10
0.0
 20
0.0
 30
0.0
 70
     1
  0
VERTEX
  5
38
  8
0
100
AcDbVertex
 10
0.0
 20
0.0
 30
0.0
 70
     0
 50
0.0
  0
VERTEX
  5
39
  8
0
100
AcDbVertex
 10
1008.0
 20
0.0
 30
0.0
 70
     0
 50
0.0
  0
VERTEX
  5
3A
  8
0
100
AcDbVertex
 10
1008.0
 20
630.0
 30
0.0
 70
     0
 50
0.0
  0
VERTEX
  5
3B
  8
0
100
AcDbVertex
 10
0.0
 20
630.0
 30
0.0
 70
     0
 50
0.0
  0
SEQEND
  5
3D
  0
POLYLINE
  5
51
  8
groove_8
 66
     1
 10
0.0
 20
0.0
 30
0.0
 70
     1
  0
VERTEX
  5
3F
  8
0
100
AcDbVertex
 10
426.169921875
 20
615.171600341797
 30
0.0
 70
     0
 50
0.0
  0
VERTEX
  5
40
  8
0
100
AcDbVertex
 10
425.0
 20
618.0
 30
0.0
 70
     0
 50
0.0
  0
VERTEX
  5
41
  8
0
100
AcDbVertex
 10
425.409912109375
 20
619.0
 30
0.0
 70
     0
 50
0.0
  0
VERTEX
  5
42
  8
0
100
AcDbVertex
 10
12.590087890625
 20
619.0
 30
0.0
 70
     0
 50
0.0
  0
VERTEX
  5
43
  8
0
100
AcDbVertex
 10
13.0
 20
618.0
 30
0.0
 70
     0
 50
0.0
  0
VERTEX
  5
44
  8
0
100
AcDbVertex
 10
11.830078125
 20
615.171600341797
 30
0.0
 70
     0
 50
0.0
  0
VERTEX
  5
45
  8
0
100
AcDbVertex
 10
9.0
 20
614.0
 30
0.0
 70
     0
 50
0.0
  0
VERTEX
  5
46
  8
0
100
AcDbVertex
 10
6.169921875
 20
615.171600341797
 30
0.0
 70
     0
 50
0.0
  0
VERTEX
  5
47
  8
0
100
AcDbVertex
 10
5.0
 20
618.0
 30
0.0
 70
     0
 50
0.0
  0
VERTEX
  5
48
  8
0
100
AcDbVertex
 10
6.169921875
 20
620.828430175781
 30
0.0
 70
     0
 50
0.0
  0
VERTEX
  5
49
  8
0
100
AcDbVertex
 10
7.5
 20
621.37868976593
 30
0.0
 70
     0
 50
0.0
  0
VERTEX
  5
4A
  8
0
100
AcDbVertex
 10
7.5
 20
622.0
 30
0.0
 70
     0
 50
0.0
  0
VERTEX
  5
4B
  8
0
100
AcDbVertex
 10
1000.5
 20
622.0
 30
0.0
 70
     0
 50
0.0
  0
VERTEX
  5
4C
  8
0
100
AcDbVertex
 10
1000.5
 20
619.0
 30
0.0
 70
     0
 50
0.0
  0
VERTEX
  5
4D
  8
0
100
AcDbVertex
 10
432.590087890625
 20
619.0
 30
0.0
 70
     0
 50
0.0
  0
VERTEX
  5
4E
  8
0
100
AcDbVertex
 10
433.0
 20
618.0
 30
0.0
 70
     0
 50
0.0
  0
VERTEX
  5
4F
  8
0
100
AcDbVertex
 10
431.830078125
 20
615.171600341797
 30
0.0
 70
     0
 50
0.0
  0
VERTEX
  5
50
  8
0
100
AcDbVertex
 10
429.0
 20
614.0
 30
0.0
 70
     0
 50
0.0
  0
SEQEND
  5
52
  0
POLYLINE
  5
58
  8
panel
 66
     1
 10
0.0
 20
0.0
 30
0.0
 70
     1
  0
VERTEX
  5
54
  8
0
100
AcDbVertex
 10
0.39990234375
 20
2.0
 30
0.0
 70
     0
 50
0.0
  0
VERTEX
  5
55
  8
0
100
AcDbVertex
 10
1007.599975585938
 20
2.0
 30
0.0
 70
     0
 50
0.0
  0
VERTEX
  5
56
  8
0
100
AcDbVertex
 10
1007.599975585938
 20
630.0
 30
0.0
 70
     0
 50
0.0
  0
VERTEX
  5
57
  8
0
100
AcDbVertex
 10
0.39990234375
 20
630.0
 30
0.0
 70
     0
 50
0.0
  0
SEQEND
  5
59
  0
POLYLINE
  5
5F
  8
close_B_2.00
 66
     1
 10
0.0
 20
0.0
 30
0.0
 70
     1
  0
VERTEX
  5
5B
  8
0
100
AcDbVertex
 10
0.0
 20
0.0
 30
0.0
 70
     0
 50
0.0
  0
VERTEX
  5
5C
  8
0
100
AcDbVertex
 10
1008.0
 20
0.0
 30
0.0
 70
     0
 50
0.0
  0
VERTEX
  5
5D
  8
0
100
AcDbVertex
 10
1008.0
 20
2.000024414063
 30
0.0
 70
     0
 50
0.0
  0
VERTEX
  5
5E
  8
0
100
AcDbVertex
 10
0.0
 20
2.000024414063
 30
0.0
 70
     0
 50
0.0
  0
SEQEND
  5
60
  0
TEXT
  5
61
  8
close_B_2.00
 10
504.0
 20
-7.5
 30
0.0
 40
5.0
  1
B: 2.00mm
 72
     1
 11
504.0
 21
-7.5
 31
0.0
 73
     2
  0
POLYLINE
  5
67
  8
close_L_0.40
 66
     1
 10
0.0
 20
0.0
 30
0.0
 70
     1
  0
VERTEX
  5
63
  8
0
100
AcDbVertex
 10
0.0
 20
0.0
 30
0.0
 70
     0
 50
0.0
  0
VERTEX
  5
64
  8
0
100
AcDbVertex
 10
0.400048828125
 20
0.0
 30
0.0
 70
     0
 50
0.0
  0
VERTEX
  5
65
  8
0
100
AcDbVertex
 10
0.400048828125
 20
630.0
 30
0.0
 70
     0
 50
0.0
  0
VERTEX
  5
66
  8
0
100
AcDbVertex
 10
0.0
 20
630.0
 30
0.0
 70
     0
 50
0.0
  0
SEQEND
  5
68
  0
TEXT
  5
69
  8
close_L_0.40
 10
-7.5
 20
315.0
 30
0.0
 40
5.0
  1
L: 0.40mm
 72
     1
 11
-7.5
 21
315.0
 31
0.0
 73
     2
  0
POLYLINE
  5
6F
  8
close_R_0.40
 66
     1
 10
0.0
 20
0.0
 30
0.0
 70
     1
  0
VERTEX
  5
6B
  8
0
100
AcDbVertex
 10
1007.599951171875
 20
0.0
 30
0.0
 70
     0
 50
0.0
  0
VERTEX
  5
6C
  8
0
100
AcDbVertex
 10
1008.0
 20
0.0
 30
0.0
 70
     0
 50
0.0
  0
VERTEX
  5
6D
  8
0
100
AcDbVertex
 10
1008.0
 20
630.0
 30
0.0
 70
     0
 50
0.0
  0
VERTEX
  5
6E
  8
0
100
AcDbVertex
 10
1007.599951171875
 20
630.0
 30
0.0
 70
     0
 50
0.0
  0
SEQEND
  5
70
  0
TEXT
  5
71
  8
close_R_0.40
 10
1015.5
 20
315.0
 30
0.0
 40
5.0
  1
R: 0.40mm
 72
     1
 11
1015.5
 21
315.0
 31
0.0
 73
     2
  0
ENDSEC
  0
EOF
