<?xml version="1.0" standalone="no"?>
<!DOCTYPE svg PUBLIC "-//W3C//DTD SVG 1.1//EN" "http://www.w3.org/Graphics/SVG/1.1/DTD/svg11.dtd">
<svg width="1008mm" height="630mm" viewBox="-2580 0 1008 630" xmlns="http://www.w3.org/2000/svg" version="1.1">
<title>OpenSCAD Model</title>
<path d="
M -2579.7,-0 L -2580,-0 L -2580,628 L -2579.7,628 z
M -1572.4,-0 L -2579.6,-0 L -2579.6,628 L -1572.4,628 z
M -2571.5,11 L -2571.5,8 L -1580.5,8 L -1580.5,11 z
M -1583.83,42.8284 L -1585,40 L -1583.83,37.1716 L -1581,36 L -1578.17,37.1716 L -1577,40
 L -1578.17,42.8284 L -1581,44 z
M -2573.83,42.8284 L -2575,40 L -2573.83,37.1716 L -2571,36 L -2568.17,37.1716 L -2567,40
 L -2568.17,42.8284 L -2571,44 z
M -2152.77,41.7678 L -2153.5,40 L -2152.77,38.2322 L -2151,37.5 L -2149.23,38.2322 L -2148.5,40
 L -2149.23,41.7678 L -2151,42.5 z
M -1918.77,52.7678 L -1919.5,51 L -1918.77,49.2322 L -1917,48.5 L -1915.23,49.2322 L -1914.5,51
 L -1915.23,52.7678 L -1917,53.5 z
M -2254.77,52.7678 L -2255.5,51 L -2254.77,49.2322 L -2253,48.5 L -2251.23,49.2322 L -2250.5,51
 L -2251.23,52.7678 L -2253,53.5 z
M -1582.77,69.7678 L -1583.5,68 L -1582.77,66.2322 L -1581,65.5 L -1579.23,66.2322 L -1578.5,68
 L -1579.23,69.7678 L -1581,70.5 z
M -2572.77,69.7678 L -2573.5,68 L -2572.77,66.2322 L -2571,65.5 L -2569.23,66.2322 L -2568.5,68
 L -2569.23,69.7678 L -2571,70.5 z
M -1583.83,98.8284 L -1585,96 L -1583.83,93.1716 L -1581,92 L -1578.17,93.1716 L -1577,96
 L -1578.17,98.8284 L -1581,100 z
M -2573.83,98.8284 L -2575,96 L -2573.83,93.1716 L -2571,92 L -2568.17,93.1716 L -2567,96
 L -2568.17,98.8284 L -2571,100 z
M -2152.77,97.7678 L -2153.5,96 L -2152.77,94.2322 L -2151,93.5 L -2149.23,94.2322 L -2148.5,96
 L -2149.23,97.7678 L -2151,98.5 z
M -2572.77,125.768 L -2573.5,124 L -2572.77,122.232 L -2571,121.5 L -2569.23,122.232 L -2568.5,124
 L -2569.23,125.768 L -2571,126.5 z
M -2572.77,181.768 L -2573.5,180 L -2572.77,178.232 L -2571,177.5 L -2569.23,178.232 L -2568.5,180
 L -2569.23,181.768 L -2571,182.5 z
M -2572.77,449.768 L -2573.5,448 L -2572.77,446.232 L -2571,445.5 L -2569.23,446.232 L -2568.5,448
 L -2569.23,449.768 L -2571,450.5 z
M -2572.77,505.768 L -2573.5,504 L -2572.77,502.232 L -2571,501.5 L -2569.23,502.232 L -2568.5,504
 L -2569.23,505.768 L -2571,506.5 z
M -2152.77,533.768 L -2153.5,532 L -2152.77,530.232 L -2151,529.5 L -2149.23,530.232 L -2148.5,532
 L -2149.23,533.768 L -2151,534.5 z
M -2573.83,536.828 L -2575,534 L -2573.83,531.172 L -2571,530 L -2568.17,531.172 L -2567,534
 L -2568.17,536.828 L -2571,538 z
M -1583.83,536.828 L -1585,534 L -1583.83,531.172 L -1581,530 L -1578.17,531.172 L -1577,534
 L -1578.17,536.828 L -1581,538 z
M -2572.77,563.768 L -2573.5,562 L -2572.77,560.232 L -2571,559.5 L -2569.23,560.232 L -2568.5,562
 L -2569.23,563.768 L -2571,564.5 z
M -1582.77,563.768 L -1583.5,562 L -1582.77,560.232 L -1581,559.5 L -1579.23,560.232 L -1578.5,562
 L -1579.23,563.768 L -1581,564.5 z
M -2254.77,579.768 L -2255.5,578 L -2254.77,576.232 L -2253,575.5 L -2251.23,576.232 L -2250.5,578
 L -2251.23,579.768 L -2253,580.5 z
M -1918.77,579.768 L -1919.5,578 L -1918.77,576.232 L -1917,575.5 L -1915.23,576.232 L -1914.5,578
 L -1915.23,579.768 L -1917,580.5 z
M -1672.81,578.588 L -1672.81,577.412 L -1671.69,577.049 L -1671,578 L -1671.69,578.951 z
M -2480.81,578.588 L -2480.81,577.412 L -2479.69,577.049 L -2479,578 L -2479.69,578.951 z
M -2152.77,589.768 L -2153.5,588 L -2152.77,586.232 L -2151,585.5 L -2149.23,586.232 L -2148.5,588
 L -2149.23,589.768 L -2151,590.5 z
M -2573.83,592.828 L -2575,590 L -2573.83,587.172 L -2571,586 L -2568.17,587.172 L -2567,590
 L -2568.17,592.828 L -2571,594 z
M -1583.83,592.828 L -1585,590 L -1583.83,587.172 L -1581,586 L -1578.17,587.172 L -1577,590
 L -1578.17,592.828 L -1581,594 z
M -2480.81,610.588 L -2480.81,609.412 L -2479.69,609.049 L -2479,610 L -2479.69,610.951 z
M -1672.81,610.588 L -1672.81,609.412 L -1671.69,609.049 L -1671,610 L -1671.69,610.951 z
M -1572,-0 L -1572.3,-0 L -1572.3,628 L -1572,628 z
M -2489.68,629.95 L -2470.32,629.95 L -2470.32,630 L -1681.68,630 L -1681.68,629.95 L -1662.32,629.95
 L -1662.32,630 L -1572.4,630 L -1572.4,628.1 L -2579.6,628.1 L -2579.6,630 L -2489.68,630
 z
" stroke="black" fill="lightgray" stroke-width="0.5"/>
</svg>
