  0
SECTION
  2
HEADER
  9
$ACADVER
  1
AC1009
  9
$INSBASE
 10
0.0
 20
0.0
 30
0.0
  9
$EXTMIN
 10
0.0
 20
0.0
 30
0.0
  9
$EXTMAX
 10
0.0
 20
0.0
 30
0.0
  9
$LIMMIN
 10
0.0
 20
0.0
  9
$LIMMAX
 10
12.0
 20
9.0
  9
$ORTHOMODE
 70
     0
  9
$REGENMODE
 70
     1
  9
$FILLMODE
 70
     1
  9
$QTEXTMODE
 70
     0
  9
$MIRRTEXT
 70
     0
  9
$DRAGMODE
 70
     2
  9
$LTSCALE
 40
1.0
  9
$OSMODE
 70
    37
  9
$ATTMODE
 70
     1
  9
$TEXTSIZE
 40
0.2
  9
$TRACEWID
 40
0.05
  9
$TEXTSTYLE
  7
STANDARD
  9
$CLAYER
  8
0
  9
$CELTYPE
  6
BYLAYER
  9
$CECOLOR
 62
   256
  9
$DIMSCALE
 40
1.0
  9
$DIMASZ
 40
0.18
  9
$DIMEXO
 40
0.0625
  9
$DIMDLI
 40
0.38
  9
$DIMRND
 40
0.0
  9
$DIMDLE
 40
0.0
  9
$DIMEXE
 40
0.18
  9
$DIMTP
 40
0.0
  9
$DIMTM
 40
0.0
  9
$DIMTXT
 40
0.18
  9
$DIMCEN
 40
0.09
  9
$DIMTSZ
 40
0.0
  9
$DIMTOL
 70
     0
  9
$DIMLIM
 70
     0
  9
$DIMTIH
 70
     1
  9
$DIMTOH
 70
     1
  9
$DIMSE1
 70
     0
  9
$DIMSE2
 70
     0
  9
$DIMTAD
 70
     0
  9
$DIMZIN
 70
     0
  9
$DIMBLK
  1

  9
$DIMASO
 70
     1
  9
$DIMSHO
 70
     1
  9
$DIMPOST
  1

  9
$DIMAPOST
  1

  9
$DIMALT
 70
     0
  9
$DIMALTD
 70
     2
  9
$DIMALTF
 40
25.4
  9
$DIMLFAC
 40
1.0
  9
$DIMTOFL
 70
     0
  9
$DIMTVP
 40
0.0
  9
$DIMTIX
 70
     0
  9
$DIMSOXD
 70
     0
  9
$DIMSAH
 70
     0
  9
$DIMBLK1
  1

  9
$DIMBLK2
  1

  9
$DIMSTYLE
  2
STANDARD
  9
$DIMCLRD
 70
     0
  9
$DIMCLRE
 70
     0
  9
$DIMCLRT
 70
     0
  9
$DIMTFAC
 40
1.0
  9
$DIMGAP
 40
0.09
  9
$LUNITS
 70
     2
  9
$LUPREC
 70
     4
  9
$SKETCHINC
 40
0.1
  9
$FILLETRAD
 40
0.0
  9
$AUNITS
 70
     0
  9
$AUPREC
 70
     0
  9
$MENU
  1
.
  9
$ELEVATION
 40
0.0
  9
$PELEVATION
 40
0.0
  9
$THICKNESS
 40
0.0
  9
$LIMCHECK
 70
     0
  9
$BLIPMODE
 70
     0
  9
$CHAMFERA
 40
0.0
  9
$CHAMFERB
 40
0.0
  9
$SKPOLY
 70
     0
  9
$TDCREATE
 40
2461198.726145833265
  9
$TDUPDATE
 40
2461198.726145833265
  9
$TDINDWG
 40
0.0
  9
$TDUSRTIMER
 40
0.0
  9
$USRTIMER
 70
     1
  9
$ANGBASE
 50
0.0
  9
$ANGDIR
 70
     0
  9
$PDMODE
 70
     0
  9
$PDSIZE
 40
0.0
  9
$PLINEWID
 40
0.0
  9
$COORDS
 70
     1
  9
$SPLFRAME
 70
     0
  9
$SPLINETYPE
 70
     6
  9
$SPLINESEGS
 70
     8
  9
$ATTDIA
 70
     1
  9
$ATTREQ
 70
     1
  9
$HANDLING
 70
     1
  9
$HANDSEED
  5
9E
  9
$SURFTAB1
 70
     6
  9
$SURFTAB2
 70
     6
  9
$SURFTYPE
 70
     6
  9
$SURFU
 70
     6
  9
$SURFV
 70
     6
  9
$UCSNAME
  2

  9
$UCSORG
 10
0.0
 20
0.0
 30
0.0
  9
$UCSXDIR
 10
1.0
 20
0.0
 30
0.0
  9
$UCSYDIR
 10
0.0
 20
1.0
 30
0.0
  9
$PUCSNAME
  2

  9
$PUCSORG
 10
0.0
 20
0.0
 30
0.0
  9
$PUCSXDIR
 10
1.0
 20
0.0
 30
0.0
  9
$PUCSYDIR
 10
0.0
 20
1.0
 30
0.0
  9
$USERI1
 70
     0
  9
$USERI2
 70
     0
  9
$USERI3
 70
     0
  9
$USERI4
 70
     0
  9
$USERI5
 70
     0
  9
$USERR1
 40
0.0
  9
$USERR2
 40
0.0
  9
$USERR3
 40
0.0
  9
$USERR4
 40
0.0
  9
$USERR5
 40
0.0
  9
$WORLDVIEW
 70
     1
  9
$SHADEDGE
 70
     3
  9
$SHADEDIF
 70
    70
  9
$TILEMODE
 70
     1
  9
$MAXACTVP
 70
    64
  9
$PLIMCHECK
 70
     0
  9
$PEXTMIN
 10
100000000000000000000.0
 20
100000000000000000000.0
 30
100000000000000000000.0
  9
$PEXTMAX
 10
-100000000000000000000.0
 20
-100000000000000000000.0
 30
-100000000000000000000.0
  9
$PLIMMIN
 10
0.0
 20
0.0
  9
$PLIMMAX
 10
12.0
 20
9.0
  9
$UNITMODE
 70
     0
  9
$VISRETAIN
 70
     1
  9
$PLINEGEN
 70
     0
  9
$PSLTSCALE
 70
     1
  0
ENDSEC
  0
SECTION
  2
TABLES
  0
TABLE
  2
APPID
100
AcDbSymbolTable
 70
     0
  0
APPID
  5
1
100
AcDbSymbolTableRecord
100
AcDbRegAppTableRecord
  2
ACAD
 70
     0
  0
APPID
  5
2
100
AcDbSymbolTableRecord
100
AcDbRegAppTableRecord
  2
ACADANNOTATIVE
 70
     0
  0
APPID
  5
4
100
AcDbSymbolTableRecord
100
AcDbRegAppTableRecord
  2
ACAD_MLEADERVER
 70
     0
  0
APPID
  5
3
100
AcDbSymbolTableRecord
100
AcDbRegAppTableRecord
  2
ACAD_NAV_VCDISPLAY
 70
     0
  0
ENDTAB
  0
TABLE
  2
DIMSTYLE
100
AcDbSymbolTable
 70
     0
  0
DIMSTYLE
  5
A
100
AcDbSymbolTableRecord
100
AcDbDimStyleTableRecord
  2
ANNOTATIVE
 70
     0
  3

  4

  6

  7

 40
1.0
 41
0.18
 42
0.0625
 43
0.38
 44
0.18
 45
0.0
 46
0.0
 47
0.0
 48
0.0
 71
     0
 72
     0
 73
     1
 74
     1
 75
     0
 76
     0
 77
     0
 78
     0
140
0.18
141
0.09
142
0.0
143
25.4
144
1.0
145
0.0
146
1.0
147
0.09
170
     0
171
     2
172
     0
173
     0
174
     0
175
     0
176
     0
177
     0
178
     0
  0
DIMSTYLE
  5
9
100
AcDbSymbolTableRecord
100
AcDbDimStyleTableRecord
  2
STANDARD
 70
     0
  3

  4

  6

  7

 40
1.0
 41
0.18
 42
0.0625
 43
0.38
 44
0.18
 45
0.0
 46
0.0
 47
0.0
 48
0.0
 71
     0
 72
     0
 73
     1
 74
     1
 75
     0
 76
     0
 77
     0
 78
     0
140
0.18
141
0.09
142
0.0
143
25.4
144
1.0
145
0.0
146
1.0
147
0.09
170
     0
171
     2
172
     0
173
     0
174
     0
175
     0
176
     0
177
     0
178
     0
  0
ENDTAB
  0
TABLE
  2
LTYPE
100
AcDbSymbolTable
 70
     0
  0
LTYPE
  5
C
100
AcDbSymbolTableRecord
100
AcDbLinetypeTableRecord
  2
BYBLOCK
 70
     0
  3

 72
    65
 73
     0
 40
0.0
  0
LTYPE
  5
B
100
AcDbSymbolTableRecord
100
AcDbLinetypeTableRecord
  2
BYLAYER
 70
     0
  3

 72
    65
 73
     0
 40
0.0
  0
LTYPE
  5
8
100
AcDbSymbolTableRecord
100
AcDbLinetypeTableRecord
  2
CONTINUOUS
 70
     0
  3

 72
    65
 73
     0
 40
0.0
  0
ENDTAB
  0
TABLE
  2
LAYER
100
AcDbSymbolTable
 70
     0
  0
LAYER
  5
7
100
AcDbSymbolTableRecord
100
AcDbLayerTableRecord
  2
0
 70
     0
 62
     7
  6
CONTINUOUS
  0
LAYER
  5
10
100
AcDbSymbolTableRecord
100
AcDbLayerTableRecord
  2
PANEL
 70
     0
 62
   200
  6
CONTINUOUS
  0
LAYER
  5
17
100
AcDbSymbolTableRecord
100
AcDbLayerTableRecord
  2
SAW
 70
     0
 62
    30
  6
CONTINUOUS
  0
LAYER
  5
1E
100
AcDbSymbolTableRecord
100
AcDbLayerTableRecord
  2
TOP
 70
     0
 62
     4
  6
CONTINUOUS
  0
LAYER
  5
3B
100
AcDbSymbolTableRecord
100
AcDbLayerTableRecord
  2
raw_panel
 70
     0
 62
     8
  6
CONTINUOUS
  0
LAYER
  5
42
100
AcDbSymbolTableRecord
100
AcDbLayerTableRecord
  2
close
 70
     0
 62
     5
  6
CONTINUOUS
  0
LAYER
  5
58
100
AcDbSymbolTableRecord
100
AcDbLayerTableRecord
  2
measure
 70
     0
 62
     3
  6
CONTINUOUS
  0
LAYER
  5
65
100
AcDbSymbolTableRecord
100
AcDbLayerTableRecord
  2
holes
 70
     0
 62
     4
  6
CONTINUOUS
  0
ENDTAB
  0
TABLE
  2
STYLE
100
AcDbSymbolTable
 70
     0
  0
STYLE
  5
E
100
AcDbSymbolTableRecord
100
AcDbTextStyleTableRecord
  2
ANNOTATIVE
 70
     0
 40
0.0
 41
1.0
 50
0.0
 71
     0
 42
0.2
  3
txt
  4

  0
STYLE
  5
D
100
AcDbSymbolTableRecord
100
AcDbTextStyleTableRecord
  2
STANDARD
 70
     0
 40
0.0
 41
1.0
 50
0.0
 71
     0
 42
0.2
  3
txt
  4

  0
ENDTAB
  0
TABLE
  2
VPORT
100
AcDbSymbolTable
 70
     0
  0
VPORT
  5
F
100
AcDbSymbolTableRecord
100
AcDbViewportTableRecord
  2
*ACTIVE
 70
     0
 10
0.0
 20
0.0
 11
1.0
 21
1.0
 12
0.0
 22
0.0
 13
0.0
 23
0.0
 14
1.0
 24
1.0
 15
1.0
 25
1.0
 16
0.0
 26
0.0
 36
1.0
 17
0.0
 27
0.0
 37
0.0
 40
1.0
 41
1.0
 42
50.0
 43
0.0
 44
0.0
 50
0.0
 51
0.0
 71
     0
 72
  1000
 73
     1
 74
     3
 75
     0
 76
     0
 77
     0
 78
     0
  0
ENDTAB
  0
ENDSEC
  0
SECTION
  2
ENTITIES
  0
POLYLINE
  5
15
  8
PANEL
 66
     1
 10
0.0
 20
0.0
 30
0.0
 39
18.0
 70
     1
  0
VERTEX
  5
11
  8
0
100
AcDbVertex
 10
-0.39990234375
 20
-2.0
 30
0.0
 70
     0
 50
0.0
  0
VERTEX
  5
12
  8
0
100
AcDbVertex
 10
1007.60009765625
 20
-2.0
 30
0.0
 70
     0
 50
0.0
  0
VERTEX
  5
13
  8
0
100
AcDbVertex
 10
1007.60009765625
 20
628.0
 30
0.0
 70
     0
 50
0.0
  0
VERTEX
  5
14
  8
0
100
AcDbVertex
 10
-0.39990234375
 20
628.0
 30
0.0
 70
     0
 50
0.0
  0
SEQEND
  5
16
  0
POLYLINE
  5
1C
  8
SAW
 66
     1
 10
0.0
 20
0.0
 30
0.0
 39
8.0
 70
     1
  0
VERTEX
  5
18
  8
0
100
AcDbVertex
 10
8.10009765625
 20
617.0
 30
0.0
 70
     0
 50
0.0
  0
VERTEX
  5
19
  8
0
100
AcDbVertex
 10
999.10009765625
 20
617.0
 30
0.0
 70
     0
 50
0.0
  0
VERTEX
  5
1A
  8
0
100
AcDbVertex
 10
999.10009765625
 20
620.0
 30
0.0
 70
     0
 50
0.0
  0
VERTEX
  5
1B
  8
0
100
AcDbVertex
 10
8.10009765625
 20
620.0
 30
0.0
 70
     0
 50
0.0
  0
SEQEND
  5
1D
  0
CIRCLE
  5
1F
  8
TOP
 39
14.5
 10
998.60009765625
 20
588.0
 30
0.0
 40
4.000530923154
  0
CIRCLE
  5
20
  8
TOP
 39
14.5
 10
8.60009765625
 20
588.0
 30
0.0
 40
4.000574093862
  0
CIRCLE
  5
21
  8
TOP
 39
14.5
 10
428.60009765625
 20
588.0
 30
0.0
 40
2.500808116768
  0
CIRCLE
  5
22
  8
TOP
 39
14.5
 10
662.60009765625
 20
577.0
 30
0.0
 40
2.500808116768
  0
CIRCLE
  5
23
  8
TOP
 39
14.5
 10
326.60009765625
 20
577.0
 30
0.0
 40
2.500808116768
  0
CIRCLE
  5
24
  8
TOP
 39
14.5
 10
998.60009765625
 20
560.0
 30
0.0
 40
2.500808116768
  0
CIRCLE
  5
25
  8
TOP
 39
14.5
 10
8.60009765625
 20
560.0
 30
0.0
 40
2.500808116768
  0
CIRCLE
  5
26
  8
TOP
 39
14.5
 10
998.60009765625
 20
532.0
 30
0.0
 40
4.000530923154
  0
CIRCLE
  5
27
  8
TOP
 39
14.5
 10
8.60009765625
 20
532.0
 30
0.0
 40
4.000574093862
  0
CIRCLE
  5
28
  8
TOP
 39
14.5
 10
428.60009765625
 20
532.0
 30
0.0
 40
2.500808116768
  0
CIRCLE
  5
29
  8
TOP
 39
14.5
 10
8.60009765625
 20
504.0
 30
0.0
 40
2.500878207067
  0
CIRCLE
  5
2A
  8
TOP
 39
14.5
 10
8.60009765625
 20
448.0
 30
0.0
 40
2.500880902926
  0
CIRCLE
  5
2B
  8
TOP
 39
14.5
 10
8.60009765625
 20
180.0
 30
0.0
 40
2.500880902926
  0
CIRCLE
  5
2C
  8
TOP
 39
14.5
 10
8.60009765625
 20
124.0
 30
0.0
 40
2.500880902926
  0
CIRCLE
  5
2D
  8
TOP
 39
14.5
 10
428.60009765625
 20
96.0
 30
0.0
 40
2.500880902926
  0
CIRCLE
  5
2E
  8
TOP
 39
14.5
 10
8.60009765625
 20
94.0
 30
0.0
 40
4.000433875683
  0
CIRCLE
  5
2F
  8
TOP
 39
14.5
 10
998.60009765625
 20
94.0
 30
0.0
 40
4.000390701949
  0
CIRCLE
  5
30
  8
TOP
 39
14.5
 10
8.60009765625
 20
66.0
 30
0.0
 40
2.500880902926
  0
CIRCLE
  5
31
  8
TOP
 39
14.5
 10
998.60009765625
 20
66.0
 30
0.0
 40
2.500880902926
  0
CIRCLE
  5
32
  8
TOP
 39
14.5
 10
326.60009765625
 20
50.0
 30
0.0
 40
2.500880902926
  0
CIRCLE
  5
33
  8
TOP
 39
14.5
 10
662.60009765625
 20
50.0
 30
0.0
 40
2.500880902926
  0
CIRCLE
  5
34
  8
TOP
 39
14.5
 10
907.60009765625
 20
50.0
 30
0.0
 40
1.000493761299
  0
CIRCLE
  5
35
  8
TOP
 39
14.5
 10
99.60009765625
 20
50.0
 30
0.0
 40
1.000493761299
  0
CIRCLE
  5
36
  8
TOP
 39
14.5
 10
428.60009765625
 20
40.0
 30
0.0
 40
2.500880902926
  0
CIRCLE
  5
37
  8
TOP
 39
14.5
 10
8.60009765625
 20
38.0
 30
0.0
 40
4.000433875683
  0
CIRCLE
  5
38
  8
TOP
 39
14.5
 10
998.60009765625
 20
38.0
 30
0.0
 40
4.000390701949
  0
CIRCLE
  5
39
  8
TOP
 39
14.5
 10
99.60009765625
 20
18.0
 30
0.0
 40
1.000493761299
  0
CIRCLE
  5
3A
  8
TOP
 39
14.5
 10
907.60009765625
 20
18.0
 30
0.0
 40
1.000493761299
  0
POLYLINE
  5
40
  8
raw_panel
 66
     1
 10
0.0
 20
0.0
 30
0.0
 70
     1
  0
VERTEX
  5
3C
  8
0
100
AcDbVertex
 10
0.0
 20
0.0
 30
0.0
 70
     0
 50
0.0
  0
VERTEX
  5
3D
  8
0
100
AcDbVertex
 10
1007.200073242188
 20
0.0
 30
0.0
 70
     0
 50
0.0
  0
VERTEX
  5
3E
  8
0
100
AcDbVertex
 10
1007.200073242188
 20
628.0
 30
0.0
 70
     0
 50
0.0
  0
VERTEX
  5
3F
  8
0
100
AcDbVertex
 10
0.0
 20
628.0
 30
0.0
 70
     0
 50
0.0
  0
SEQEND
  5
41
  0
POLYLINE
  5
47
  8
close
 66
     1
 10
0.0
 20
0.0
 30
0.0
 70
     1
  0
VERTEX
  5
43
  8
0
100
AcDbVertex
 10
-0.39990234375
 20
-2.0
 30
0.0
 70
     0
 50
0.0
  0
VERTEX
  5
44
  8
0
100
AcDbVertex
 10
1007.60009765625
 20
-2.0
 30
0.0
 70
     0
 50
0.0
  0
VERTEX
  5
45
  8
0
100
AcDbVertex
 10
1007.60009765625
 20
0.000024414063
 30
0.0
 70
     0
 50
0.0
  0
VERTEX
  5
46
  8
0
100
AcDbVertex
 10
-0.39990234375
 20
0.000024414063
 30
0.0
 70
     0
 50
0.0
  0
SEQEND
  5
48
  0
TEXT
  5
49
  8
close
 10
503.60009765625
 20
-32.202247191011
 30
0.0
 40
15.101123595506
  1
FRONT: 2.00mm
 72
     1
 11
503.60009765625
 21
-32.202247191011
 31
0.0
 73
     2
  0
POLYLINE
  5
4E
  8
close
 66
     1
 10
0.0
 20
0.0
 30
0.0
 70
     1
  0
VERTEX
  5
4A
  8
0
100
AcDbVertex
 10
-0.39990234375
 20
-2.0
 30
0.0
 70
     0
 50
0.0
  0
VERTEX
  5
4B
  8
0
100
AcDbVertex
 10
0.000146484375
 20
-2.0
 30
0.0
 70
     0
 50
0.0
  0
VERTEX
  5
4C
  8
0
100
AcDbVertex
 10
0.000146484375
 20
628.0
 30
0.0
 70
     0
 50
0.0
  0
VERTEX
  5
4D
  8
0
100
AcDbVertex
 10
-0.39990234375
 20
628.0
 30
0.0
 70
     0
 50
0.0
  0
SEQEND
  5
4F
  0
TEXT
  5
50
  8
close
 10
-30.602149534761
 20
313.0
 30
0.0
 40
15.101123595506
  1
LEFT: 0.40mm
 72
     1
 11
-30.602149534761
 21
313.0
 31
0.0
 73
     2
  0
POLYLINE
  5
55
  8
close
 66
     1
 10
0.0
 20
0.0
 30
0.0
 70
     1
  0
VERTEX
  5
51
  8
0
100
AcDbVertex
 10
1007.200048828125
 20
-2.0
 30
0.0
 70
     0
 50
0.0
  0
VERTEX
  5
52
  8
0
100
AcDbVertex
 10
1007.60009765625
 20
-2.0
 30
0.0
 70
     0
 50
0.0
  0
VERTEX
  5
53
  8
0
100
AcDbVertex
 10
1007.60009765625
 20
628.0
 30
0.0
 70
     0
 50
0.0
  0
VERTEX
  5
54
  8
0
100
AcDbVertex
 10
1007.200048828125
 20
628.0
 30
0.0
 70
     0
 50
0.0
  0
SEQEND
  5
56
  0
TEXT
  5
57
  8
close
 10
1037.802344847261
 20
313.0
 30
0.0
 40
15.101123595506
  1
RIGHT: 0.40mm
 72
     1
 11
1037.802344847261
 21
313.0
 31
0.0
 73
     2
  0
LINE
  5
59
  8
measure
 10
-0.39990234375
 20
-2.0
 30
0.0
 11
-0.39990234375
 21
-62.404494382022
 31
0.0
  0
LINE
  5
5A
  8
measure
 10
1007.60009765625
 20
-2.0
 30
0.0
 11
1007.60009765625
 21
-62.404494382022
 31
0.0
  0
LINE
  5
5B
  8
measure
 10
-0.39990234375
 20
-54.85393258427
 30
0.0
 11
1007.60009765625
 21
-54.85393258427
 31
0.0
  0
LINE
  5
5C
  8
measure
 10
-0.39990234375
 20
-62.404494382022
 30
0.0
 11
-0.39990234375
 21
-47.303370786517
 31
0.0
  0
LINE
  5
5D
  8
measure
 10
1007.60009765625
 20
-62.404494382022
 30
0.0
 11
1007.60009765625
 21
-47.303370786517
 31
0.0
  0
TEXT
  5
5E
  8
measure
 10
503.60009765625
 20
-68.444943820225
 30
0.0
 40
15.101123595506
  1
1008
 72
     1
 11
503.60009765625
 21
-68.444943820225
 31
0.0
 73
     2
  0
LINE
  5
5F
  8
measure
 10
-0.39990234375
 20
-2.0
 30
0.0
 11
-60.804396725772
 21
-2.0
 31
0.0
  0
LINE
  5
60
  8
measure
 10
-0.39990234375
 20
628.0
 30
0.0
 11
-60.804396725772
 21
628.0
 31
0.0
  0
LINE
  5
61
  8
measure
 10
-53.25383492802
 20
-2.0
 30
0.0
 11
-53.25383492802
 21
628.0
 31
0.0
  0
LINE
  5
62
  8
measure
 10
-60.804396725772
 20
-2.0
 30
0.0
 11
-45.703273130267
 21
-2.0
 31
0.0
  0
LINE
  5
63
  8
measure
 10
-60.804396725772
 20
628.0
 30
0.0
 11
-45.703273130267
 21
628.0
 31
0.0
  0
TEXT
  5
64
  8
measure
 10
-66.844846163975
 20
313.0
 30
0.0
 40
15.101123595506
  1
630
 50
90.0
 72
     1
 11
-66.844846163975
 21
313.0
 31
0.0
 73
     2
  0
LINE
  5
66
  8
holes
 10
998.60009765625
 20
588.0
 30
0.0
 11
1002.600628579404
 21
588.0
 31
0.0
  0
TEXT
  5
67
  8
holes
 10
998.60009765625
 20
605.591542159109
 30
0.0
 40
15.101123595506
  1
\U+23008.0
 72
     1
 11
998.60009765625
 21
605.591542159109
 31
0.0
 73
     2
  0
LINE
  5
68
  8
holes
 10
8.60009765625
 20
588.0
 30
0.0
 11
12.600671750112
 21
588.0
 31
0.0
  0
TEXT
  5
69
  8
holes
 10
8.60009765625
 20
605.591585329817
 30
0.0
 40
15.101123595506
  1
\U+23008.0
 72
     1
 11
8.60009765625
 21
605.591585329817
 31
0.0
 73
     2
  0
LINE
  5
6A
  8
holes
 10
428.60009765625
 20
588.0
 30
0.0
 11
431.100905773018
 21
588.0
 31
0.0
  0
TEXT
  5
6B
  8
holes
 10
428.60009765625
 20
604.091819352723
 30
0.0
 40
15.101123595506
  1
\U+23005.0
 72
     1
 11
428.60009765625
 21
604.091819352723
 31
0.0
 73
     2
  0
LINE
  5
6C
  8
holes
 10
662.60009765625
 20
577.0
 30
0.0
 11
665.100905773018
 21
577.0
 31
0.0
  0
TEXT
  5
6D
  8
holes
 10
662.60009765625
 20
593.091819352723
 30
0.0
 40
15.101123595506
  1
\U+23005.0
 72
     1
 11
662.60009765625
 21
593.091819352723
 31
0.0
 73
     2
  0
LINE
  5
6E
  8
holes
 10
326.60009765625
 20
577.0
 30
0.0
 11
329.100905773018
 21
577.0
 31
0.0
  0
TEXT
  5
6F
  8
holes
 10
326.60009765625
 20
593.091819352723
 30
0.0
 40
15.101123595506
  1
\U+23005.0
 72
     1
 11
326.60009765625
 21
593.091819352723
 31
0.0
 73
     2
  0
LINE
  5
70
  8
holes
 10
998.60009765625
 20
560.0
 30
0.0
 11
1001.100905773018
 21
560.0
 31
0.0
  0
TEXT
  5
71
  8
holes
 10
998.60009765625
 20
576.091819352723
 30
0.0
 40
15.101123595506
  1
\U+23005.0
 72
     1
 11
998.60009765625
 21
576.091819352723
 31
0.0
 73
     2
  0
LINE
  5
72
  8
holes
 10
8.60009765625
 20
560.0
 30
0.0
 11
11.100905773018
 21
560.0
 31
0.0
  0
TEXT
  5
73
  8
holes
 10
8.60009765625
 20
576.091819352723
 30
0.0
 40
15.101123595506
  1
\U+23005.0
 72
     1
 11
8.60009765625
 21
576.091819352723
 31
0.0
 73
     2
  0
LINE
  5
74
  8
holes
 10
998.60009765625
 20
532.0
 30
0.0
 11
1002.600628579404
 21
532.0
 31
0.0
  0
TEXT
  5
75
  8
holes
 10
998.60009765625
 20
549.591542159109
 30
0.0
 40
15.101123595506
  1
\U+23008.0
 72
     1
 11
998.60009765625
 21
549.591542159109
 31
0.0
 73
     2
  0
LINE
  5
76
  8
holes
 10
8.60009765625
 20
532.0
 30
0.0
 11
12.600671750112
 21
532.0
 31
0.0
  0
TEXT
  5
77
  8
holes
 10
8.60009765625
 20
549.591585329817
 30
0.0
 40
15.101123595506
  1
\U+23008.0
 72
     1
 11
8.60009765625
 21
549.591585329817
 31
0.0
 73
     2
  0
LINE
  5
78
  8
holes
 10
428.60009765625
 20
532.0
 30
0.0
 11
431.100905773018
 21
532.0
 31
0.0
  0
TEXT
  5
79
  8
holes
 10
428.60009765625
 20
548.091819352723
 30
0.0
 40
15.101123595506
  1
\U+23005.0
 72
     1
 11
428.60009765625
 21
548.091819352723
 31
0.0
 73
     2
  0
LINE
  5
7A
  8
holes
 10
8.60009765625
 20
504.0
 30
0.0
 11
11.100975863317
 21
504.0
 31
0.0
  0
TEXT
  5
7B
  8
holes
 10
8.60009765625
 20
520.091889443022
 30
0.0
 40
15.101123595506
  1
\U+23005.0
 72
     1
 11
8.60009765625
 21
520.091889443022
 31
0.0
 73
     2
  0
LINE
  5
7C
  8
holes
 10
8.60009765625
 20
448.0
 30
0.0
 11
11.100978559176
 21
448.0
 31
0.0
  0
TEXT
  5
7D
  8
holes
 10
8.60009765625
 20
464.091892138881
 30
0.0
 40
15.101123595506
  1
\U+23005.0
 72
     1
 11
8.60009765625
 21
464.091892138881
 31
0.0
 73
     2
  0
LINE
  5
7E
  8
holes
 10
8.60009765625
 20
180.0
 30
0.0
 11
11.100978559176
 21
180.0
 31
0.0
  0
TEXT
  5
7F
  8
holes
 10
8.60009765625
 20
196.091892138881
 30
0.0
 40
15.101123595506
  1
\U+23005.0
 72
     1
 11
8.60009765625
 21
196.091892138881
 31
0.0
 73
     2
  0
LINE
  5
80
  8
holes
 10
8.60009765625
 20
124.0
 30
0.0
 11
11.100978559176
 21
124.0
 31
0.0
  0
TEXT
  5
81
  8
holes
 10
8.60009765625
 20
140.091892138881
 30
0.0
 40
15.101123595506
  1
\U+23005.0
 72
     1
 11
8.60009765625
 21
140.091892138881
 31
0.0
 73
     2
  0
LINE
  5
82
  8
holes
 10
428.60009765625
 20
96.0
 30
0.0
 11
431.100978559176
 21
96.0
 31
0.0
  0
TEXT
  5
83
  8
holes
 10
428.60009765625
 20
112.091892138881
 30
0.0
 40
15.101123595506
  1
\U+23005.0
 72
     1
 11
428.60009765625
 21
112.091892138881
 31
0.0
 73
     2
  0
LINE
  5
84
  8
holes
 10
8.60009765625
 20
94.0
 30
0.0
 11
12.600531531933
 21
94.0
 31
0.0
  0
TEXT
  5
85
  8
holes
 10
8.60009765625
 20
111.591445111638
 30
0.0
 40
15.101123595506
  1
\U+23008.0
 72
     1
 11
8.60009765625
 21
111.591445111638
 31
0.0
 73
     2
  0
LINE
  5
86
  8
holes
 10
998.60009765625
 20
94.0
 30
0.0
 11
1002.600488358199
 21
94.0
 31
0.0
  0
TEXT
  5
87
  8
holes
 10
998.60009765625
 20
111.591401937905
 30
0.0
 40
15.101123595506
  1
\U+23008.0
 72
     1
 11
998.60009765625
 21
111.591401937905
 31
0.0
 73
     2
  0
LINE
  5
88
  8
holes
 10
8.60009765625
 20
66.0
 30
0.0
 11
11.100978559176
 21
66.0
 31
0.0
  0
TEXT
  5
89
  8
holes
 10
8.60009765625
 20
82.091892138881
 30
0.0
 40
15.101123595506
  1
\U+23005.0
 72
     1
 11
8.60009765625
 21
82.091892138881
 31
0.0
 73
     2
  0
LINE
  5
8A
  8
holes
 10
998.60009765625
 20
66.0
 30
0.0
 11
1001.100978559176
 21
66.0
 31
0.0
  0
TEXT
  5
8B
  8
holes
 10
998.60009765625
 20
82.091892138881
 30
0.0
 40
15.101123595506
  1
\U+23005.0
 72
     1
 11
998.60009765625
 21
82.091892138881
 31
0.0
 73
     2
  0
LINE
  5
8C
  8
holes
 10
326.60009765625
 20
50.0
 30
0.0
 11
329.100978559176
 21
50.0
 31
0.0
  0
TEXT
  5
8D
  8
holes
 10
326.60009765625
 20
66.091892138881
 30
0.0
 40
15.101123595506
  1
\U+23005.0
 72
     1
 11
326.60009765625
 21
66.091892138881
 31
0.0
 73
     2
  0
LINE
  5
8E
  8
holes
 10
662.60009765625
 20
50.0
 30
0.0
 11
665.100978559176
 21
50.0
 31
0.0
  0
TEXT
  5
8F
  8
holes
 10
662.60009765625
 20
66.091892138881
 30
0.0
 40
15.101123595506
  1
\U+23005.0
 72
     1
 11
662.60009765625
 21
66.091892138881
 31
0.0
 73
     2
  0
LINE
  5
90
  8
holes
 10
907.60009765625
 20
50.0
 30
0.0
 11
908.600591417549
 21
50.0
 31
0.0
  0
TEXT
  5
91
  8
holes
 10
907.60009765625
 20
64.591504997254
 30
0.0
 40
15.101123595506
  1
\U+23002.0
 72
     1
 11
907.60009765625
 21
64.591504997254
 31
0.0
 73
     2
  0
LINE
  5
92
  8
holes
 10
99.60009765625
 20
50.0
 30
0.0
 11
100.600591417549
 21
50.0
 31
0.0
  0
TEXT
  5
93
  8
holes
 10
99.60009765625
 20
64.591504997254
 30
0.0
 40
15.101123595506
  1
\U+23002.0
 72
     1
 11
99.60009765625
 21
64.591504997254
 31
0.0
 73
     2
  0
LINE
  5
94
  8
holes
 10
428.60009765625
 20
40.0
 30
0.0
 11
431.100978559176
 21
40.0
 31
0.0
  0
TEXT
  5
95
  8
holes
 10
428.60009765625
 20
56.091892138881
 30
0.0
 40
15.101123595506
  1
\U+23005.0
 72
     1
 11
428.60009765625
 21
56.091892138881
 31
0.0
 73
     2
  0
LINE
  5
96
  8
holes
 10
8.60009765625
 20
38.0
 30
0.0
 11
12.600531531933
 21
38.0
 31
0.0
  0
TEXT
  5
97
  8
holes
 10
8.60009765625
 20
55.591445111638
 30
0.0
 40
15.101123595506
  1
\U+23008.0
 72
     1
 11
8.60009765625
 21
55.591445111638
 31
0.0
 73
     2
  0
LINE
  5
98
  8
holes
 10
998.60009765625
 20
38.0
 30
0.0
 11
1002.600488358199
 21
38.0
 31
0.0
  0
TEXT
  5
99
  8
holes
 10
998.60009765625
 20
55.591401937905
 30
0.0
 40
15.101123595506
  1
\U+23008.0
 72
     1
 11
998.60009765625
 21
55.591401937905
 31
0.0
 73
     2
  0
LINE
  5
9A
  8
holes
 10
99.60009765625
 20
18.0
 30
0.0
 11
100.600591417549
 21
18.0
 31
0.0
  0
TEXT
  5
9B
  8
holes
 10
99.60009765625
 20
32.591504997254
 30
0.0
 40
15.101123595506
  1
\U+23002.0
 72
     1
 11
99.60009765625
 21
32.591504997254
 31
0.0
 73
     2
  0
LINE
  5
9C
  8
holes
 10
907.60009765625
 20
18.0
 30
0.0
 11
908.600591417549
 21
18.0
 31
0.0
  0
TEXT
  5
9D
  8
holes
 10
907.60009765625
 20
32.591504997254
 30
0.0
 40
15.101123595506
  1
\U+23002.0
 72
     1
 11
907.60009765625
 21
32.591504997254
 31
0.0
 73
     2
  0
ENDSEC
  0
EOF
