<?xml version="1.0" standalone="no"?>
<!DOCTYPE svg PUBLIC "-//W3C//DTD SVG 1.1//EN" "http://www.w3.org/Graphics/SVG/1.1/DTD/svg11.dtd">
<svg width="628mm" height="628mm" viewBox="-1428 -628 628 628" xmlns="http://www.w3.org/2000/svg" version="1.1">
<title>OpenSCAD Model</title>
<path d="
M -800,-627.902 L -859.751,-624.966 L -920.907,-615.895 L -980.879,-600.872 L -1039.09,-580.044 L -1094.98,-553.61
 L -1148.01,-521.826 L -1197.67,-484.997 L -1243.48,-443.477 L -1285,-397.668 L -1321.83,-348.009 L -1353.61,-294.98
 L -1380.04,-239.091 L -1400.87,-180.879 L -1415.89,-120.907 L -1424.97,-59.7508 L -1427.9,-0 L -800,-0
 z
M -842.828,-6.17157 L -844,-9 L -842.828,-11.8284 L -840,-13 L -837.172,-11.8284 L -836,-9
 L -837.172,-6.17157 L -840,-5 z
M -1336.83,-6.17157 L -1338,-9 L -1336.83,-11.8284 L -1334,-13 L -1331.17,-11.8284 L -1330,-9
 L -1331.17,-6.17157 L -1334,-5 z
M -898.828,-6.17157 L -900,-9 L -898.828,-11.8284 L -896,-13 L -893.172,-11.8284 L -892,-9
 L -893.172,-6.17157 L -896,-5 z
M -1392.83,-6.17157 L -1394,-9 L -1392.83,-11.8284 L -1390,-13 L -1387.17,-11.8284 L -1386,-9
 L -1387.17,-6.17157 L -1390,-5 z
M -1363.77,-7.23222 L -1364.5,-9 L -1363.77,-10.7678 L -1362,-11.5 L -1360.23,-10.7678 L -1359.5,-9
 L -1360.23,-7.23222 L -1362,-6.5 z
M -869.768,-7.23222 L -870.5,-9 L -869.768,-10.7678 L -868,-11.5 L -866.232,-10.7678 L -865.5,-9
 L -866.232,-7.23222 L -868,-6.5 z
" stroke="black" fill="lightgray" stroke-width="0.5"/>
</svg>
