<?xml version="1.0" standalone="no"?>
<!DOCTYPE svg PUBLIC "-//W3C//DTD SVG 1.1//EN" "http://www.w3.org/Graphics/SVG/1.1/DTD/svg11.dtd">
<svg width="798mm" height="798mm" viewBox="801 73 798 798" xmlns="http://www.w3.org/2000/svg" version="1.1">
<title>OpenSCAD Model</title>
<path d="
M 1597,73 L 803,73 L 803,74.9 L 1597,74.9 z
M 802.9,75 L 801,75 L 801,269 L 802.9,269 z
M 1597,75 L 803,75 L 803,269 L 1597,269 z
M 1135,238.5 L 1133.47,238.196 L 1132.17,237.328 L 1131.3,236.031 L 1131,234.5 L 1131,209.5
 L 1131.3,207.969 L 1132.17,206.672 L 1133.47,205.804 L 1135,205.5 L 1265,205.5 L 1266.53,205.804
 L 1267.83,206.672 L 1268.7,207.969 L 1269,209.5 L 1269,234.5 L 1268.7,236.031 L 1267.83,237.328
 L 1266.53,238.196 L 1265,238.5 z
M 1137.77,223.768 L 1138.5,222 L 1137.77,220.232 L 1136,219.5 L 1134.23,220.232 L 1133.5,222
 L 1134.23,223.768 L 1136,224.5 z
M 1265.77,223.768 L 1266.5,222 L 1265.77,220.232 L 1264,219.5 L 1262.23,220.232 L 1261.5,222
 L 1262.23,223.768 L 1264,224.5 z
M 1599,75 L 1597.1,75 L 1597.1,269 L 1599,269 z
M 1597,269.1 L 803,269.1 L 803,271 L 1597,271 z
M 1597,273 L 803,273 L 803,274.9 L 1597,274.9 z
M 802.9,275 L 801,275 L 801,469 L 802.9,469 z
M 1599,275 L 1597.1,275 L 1597.1,469 L 1599,469 z
M 1597,275 L 803,275 L 803,469 L 1597,469 z
M 1135,438.5 L 1133.47,438.196 L 1132.17,437.328 L 1131.3,436.031 L 1131,434.5 L 1131,409.5
 L 1131.3,407.969 L 1132.17,406.672 L 1133.47,405.804 L 1135,405.5 L 1265,405.5 L 1266.53,405.804
 L 1267.83,406.672 L 1268.7,407.969 L 1269,409.5 L 1269,434.5 L 1268.7,436.031 L 1267.83,437.328
 L 1266.53,438.196 L 1265,438.5 z
M 1265.77,423.768 L 1266.5,422 L 1265.77,420.232 L 1264,419.5 L 1262.23,420.232 L 1261.5,422
 L 1262.23,423.768 L 1264,424.5 z
M 1137.77,423.768 L 1138.5,422 L 1137.77,420.232 L 1136,419.5 L 1134.23,420.232 L 1133.5,422
 L 1134.23,423.768 L 1136,424.5 z
M 1597,469.1 L 803,469.1 L 803,471 L 1597,471 z
M 1597,473 L 803,473 L 803,474.9 L 1597,474.9 z
M 1597,475 L 803,475 L 803,669 L 1597,669 z
M 1135,638.5 L 1133.47,638.195 L 1132.17,637.328 L 1131.3,636.031 L 1131,634.5 L 1131,609.5
 L 1131.3,607.969 L 1132.17,606.672 L 1133.47,605.805 L 1135,605.5 L 1265,605.5 L 1266.53,605.805
 L 1267.83,606.672 L 1268.7,607.969 L 1269,609.5 L 1269,634.5 L 1268.7,636.031 L 1267.83,637.328
 L 1266.53,638.195 L 1265,638.5 z
M 1265.77,623.768 L 1266.5,622 L 1265.77,620.232 L 1264,619.5 L 1262.23,620.232 L 1261.5,622
 L 1262.23,623.768 L 1264,624.5 z
M 1137.77,623.768 L 1138.5,622 L 1137.77,620.232 L 1136,619.5 L 1134.23,620.232 L 1133.5,622
 L 1134.23,623.768 L 1136,624.5 z
M 802.9,475 L 801,475 L 801,669 L 802.9,669 z
M 1599,475 L 1597.1,475 L 1597.1,669 L 1599,669 z
M 1597,669.1 L 803,669.1 L 803,671 L 1597,671 z
M 1597,673 L 803,673 L 803,674.9 L 1597,674.9 z
M 1599,675 L 1597.1,675 L 1597.1,869 L 1599,869 z
M 802.9,675 L 801,675 L 801,869 L 802.9,869 z
M 1597,675 L 803,675 L 803,869 L 1597,869 z
M 1135,838.5 L 1133.47,838.195 L 1132.17,837.328 L 1131.3,836.031 L 1131,834.5 L 1131,809.5
 L 1131.3,807.969 L 1132.17,806.672 L 1133.47,805.805 L 1135,805.5 L 1265,805.5 L 1266.53,805.805
 L 1267.83,806.672 L 1268.7,807.969 L 1269,809.5 L 1269,834.5 L 1268.7,836.031 L 1267.83,837.328
 L 1266.53,838.195 L 1265,838.5 z
M 1137.77,823.768 L 1138.5,822 L 1137.77,820.232 L 1136,819.5 L 1134.23,820.232 L 1133.5,822
 L 1134.23,823.768 L 1136,824.5 z
M 1265.77,823.768 L 1266.5,822 L 1265.77,820.232 L 1264,819.5 L 1262.23,820.232 L 1261.5,822
 L 1262.23,823.768 L 1264,824.5 z
M 1597,869.1 L 803,869.1 L 803,871 L 1597,871 z
" stroke="black" fill="lightgray" stroke-width="0.5"/>
</svg>
