<?xml version="1.0" standalone="no"?>
<!DOCTYPE svg PUBLIC "-//W3C//DTD SVG 1.1//EN" "http://www.w3.org/Graphics/SVG/1.1/DTD/svg11.dtd">
<svg width="764mm" height="630mm" viewBox="818 -630 764 630" xmlns="http://www.w3.org/2000/svg" version="1.1">
<title>OpenSCAD Model</title>
<path d="
M 1582,-630 L 818,-630 L 818,-628.1 L 1582,-628.1 z
M 1582,-36.0021 L 1555.5,-36.0021 L 1555.5,-43.9979 L 1582,-43.9979 L 1582,-64.0021 L 1562,-64.0021
 L 1562,-65.5021 L 1560.5,-65.5021 L 1560.5,-70.4979 L 1562,-70.4979 L 1562,-71.9979 L 1582,-71.9979
 L 1582,-92.0021 L 1555.5,-92.0021 L 1555.5,-99.9979 L 1582,-99.9979 L 1582,-530.002 L 1555.5,-530.002
 L 1555.5,-537.998 L 1582,-537.998 L 1582,-558.002 L 1562,-558.002 L 1562,-559.502 L 1560.5,-559.502
 L 1560.5,-564.498 L 1562,-564.498 L 1562,-565.998 L 1582,-565.998 L 1582,-586.002 L 1555.5,-586.002
 L 1555.5,-593.998 L 1582,-593.998 L 1582,-628 L 818,-628 L 818,-593.998 L 844.5,-593.998
 L 844.5,-586.002 L 818,-586.002 L 818,-565.998 L 838,-565.998 L 838,-564.498 L 839.5,-564.498
 L 839.5,-559.502 L 838,-559.502 L 838,-558.002 L 818,-558.002 L 818,-537.998 L 844.5,-537.998
 L 844.5,-530.002 L 818,-530.002 L 818,-99.9979 L 844.5,-99.9979 L 844.5,-92.0021 L 818,-92.0021
 L 818,-71.9979 L 838,-71.9979 L 838,-70.4979 L 839.5,-70.4979 L 839.5,-65.5021 L 838,-65.5021
 L 838,-64.0021 L 818,-64.0021 L 818,-43.9979 L 844.5,-43.9979 L 844.5,-36.0021 L 818,-36.0021
 L 818,-11 L 1582,-11 z
M 1548,-569.5 L 1553.3,-567.303 L 1555.5,-562 L 1553.3,-556.697 L 1548,-554.5 L 1542.7,-556.697
 L 1540.5,-562 L 1542.7,-567.303 z
M 846.697,-62.6967 L 844.5,-68 L 846.697,-73.3033 L 852,-75.5 L 857.303,-73.3033 L 859.5,-68
 L 857.303,-62.6967 L 852,-60.5 z
M 1542.7,-62.6967 L 1540.5,-68 L 1542.7,-73.3033 L 1548,-75.5 L 1553.3,-73.3033 L 1555.5,-68
 L 1553.3,-62.6967 L 1548,-60.5 z
M 852,-554.5 L 846.697,-556.697 L 844.5,-562 L 846.697,-567.303 L 852,-569.5 L 857.303,-567.303
 L 859.5,-562 L 857.303,-556.697 z
M 1582,-8 L 818,-8 L 818,-0 L 1582,-0 z
" stroke="black" fill="lightgray" stroke-width="0.5"/>
</svg>
