<?xml version="1.0" standalone="no"?>
<!DOCTYPE svg PUBLIC "-//W3C//DTD SVG 1.1//EN" "http://www.w3.org/Graphics/SVG/1.1/DTD/svg11.dtd">
<svg width="764mm" height="630mm" viewBox="18 -630 764 630" xmlns="http://www.w3.org/2000/svg" version="1.1">
<title>OpenSCAD Model</title>
<path d="
M 782,-630 L 18,-630 L 18,-628.1 L 782,-628.1 z
M 782,-36.0021 L 755.5,-36.0021 L 755.5,-43.9979 L 782,-43.9979 L 782,-64.0021 L 762,-64.0021
 L 762,-65.5021 L 760.5,-65.5021 L 760.5,-70.4979 L 762,-70.4979 L 762,-71.9979 L 782,-71.9979
 L 782,-92.0021 L 755.5,-92.0021 L 755.5,-99.9979 L 782,-99.9979 L 782,-530.002 L 755.5,-530.002
 L 755.5,-537.998 L 782,-537.998 L 782,-558.002 L 762,-558.002 L 762,-559.502 L 760.5,-559.502
 L 760.5,-564.498 L 762,-564.498 L 762,-565.998 L 782,-565.998 L 782,-586.002 L 755.5,-586.002
 L 755.5,-593.998 L 782,-593.998 L 782,-628 L 18,-628 L 18,-593.998 L 44.5,-593.998
 L 44.5,-586.002 L 18,-586.002 L 18,-565.998 L 38,-565.998 L 38,-564.498 L 39.5,-564.498
 L 39.5,-559.502 L 38,-559.502 L 38,-558.002 L 18,-558.002 L 18,-537.998 L 44.5,-537.998
 L 44.5,-530.002 L 18,-530.002 L 18,-99.9979 L 44.5,-99.9979 L 44.5,-92.0021 L 18,-92.0021
 L 18,-71.9979 L 38,-71.9979 L 38,-70.4979 L 39.5,-70.4979 L 39.5,-65.5021 L 38,-65.5021
 L 38,-64.0021 L 18,-64.0021 L 18,-43.9979 L 44.5,-43.9979 L 44.5,-36.0021 L 18,-36.0021
 L 18,-11 L 782,-11 z
M 748,-569.5 L 753.303,-567.303 L 755.5,-562 L 753.303,-556.697 L 748,-554.5 L 742.697,-556.697
 L 740.5,-562 L 742.697,-567.303 z
M 46.6967,-62.6967 L 44.5,-68 L 46.6967,-73.3033 L 52,-75.5 L 57.3033,-73.3033 L 59.5,-68
 L 57.3033,-62.6967 L 52,-60.5 z
M 742.697,-62.6967 L 740.5,-68 L 742.697,-73.3033 L 748,-75.5 L 753.303,-73.3033 L 755.5,-68
 L 753.303,-62.6967 L 748,-60.5 z
M 52,-554.5 L 46.6967,-556.697 L 44.5,-562 L 46.6967,-567.303 L 52,-569.5 L 57.3033,-567.303
 L 59.5,-562 L 57.3033,-556.697 z
M 782,-8 L 18,-8 L 18,-0 L 782,-0 z
" stroke="black" fill="lightgray" stroke-width="0.5"/>
</svg>
