  0
SECTION
  2
HEADER
  9
$ACADVER
  1
AC1009
  9
$INSBASE
 10
0.0
 20
0.0
 30
0.0
  9
$EXTMIN
 10
0.0
 20
0.0
 30
0.0
  9
$EXTMAX
 10
0.0
 20
0.0
 30
0.0
  9
$LIMMIN
 10
0.0
 20
0.0
  9
$LIMMAX
 10
12.0
 20
9.0
  9
$ORTHOMODE
 70
     0
  9
$REGENMODE
 70
     1
  9
$FILLMODE
 70
     1
  9
$QTEXTMODE
 70
     0
  9
$MIRRTEXT
 70
     0
  9
$DRAGMODE
 70
     2
  9
$LTSCALE
 40
1.0
  9
$OSMODE
 70
    37
  9
$ATTMODE
 70
     1
  9
$TEXTSIZE
 40
0.2
  9
$TRACEWID
 40
0.05
  9
$TEXTSTYLE
  7
STANDARD
  9
$CLAYER
  8
0
  9
$CELTYPE
  6
BYLAYER
  9
$CECOLOR
 62
   256
  9
$DIMSCALE
 40
1.0
  9
$DIMASZ
 40
0.18
  9
$DIMEXO
 40
0.0625
  9
$DIMDLI
 40
0.38
  9
$DIMRND
 40
0.0
  9
$DIMDLE
 40
0.0
  9
$DIMEXE
 40
0.18
  9
$DIMTP
 40
0.0
  9
$DIMTM
 40
0.0
  9
$DIMTXT
 40
0.18
  9
$DIMCEN
 40
0.09
  9
$DIMTSZ
 40
0.0
  9
$DIMTOL
 70
     0
  9
$DIMLIM
 70
     0
  9
$DIMTIH
 70
     1
  9
$DIMTOH
 70
     1
  9
$DIMSE1
 70
     0
  9
$DIMSE2
 70
     0
  9
$DIMTAD
 70
     0
  9
$DIMZIN
 70
     0
  9
$DIMBLK
  1

  9
$DIMASO
 70
     1
  9
$DIMSHO
 70
     1
  9
$DIMPOST
  1

  9
$DIMAPOST
  1

  9
$DIMALT
 70
     0
  9
$DIMALTD
 70
     2
  9
$DIMALTF
 40
25.4
  9
$DIMLFAC
 40
1.0
  9
$DIMTOFL
 70
     0
  9
$DIMTVP
 40
0.0
  9
$DIMTIX
 70
     0
  9
$DIMSOXD
 70
     0
  9
$DIMSAH
 70
     0
  9
$DIMBLK1
  1

  9
$DIMBLK2
  1

  9
$DIMSTYLE
  2
STANDARD
  9
$DIMCLRD
 70
     0
  9
$DIMCLRE
 70
     0
  9
$DIMCLRT
 70
     0
  9
$DIMTFAC
 40
1.0
  9
$DIMGAP
 40
0.09
  9
$LUNITS
 70
     2
  9
$LUPREC
 70
     4
  9
$SKETCHINC
 40
0.1
  9
$FILLETRAD
 40
0.0
  9
$AUNITS
 70
     0
  9
$AUPREC
 70
     0
  9
$MENU
  1
.
  9
$ELEVATION
 40
0.0
  9
$PELEVATION
 40
0.0
  9
$THICKNESS
 40
0.0
  9
$LIMCHECK
 70
     0
  9
$BLIPMODE
 70
     0
  9
$CHAMFERA
 40
0.0
  9
$CHAMFERB
 40
0.0
  9
$SKPOLY
 70
     0
  9
$TDCREATE
 40
2461198.791666666511
  9
$TDUPDATE
 40
2461198.791666666511
  9
$TDINDWG
 40
0.0
  9
$TDUSRTIMER
 40
0.0
  9
$USRTIMER
 70
     1
  9
$ANGBASE
 50
0.0
  9
$ANGDIR
 70
     0
  9
$PDMODE
 70
     0
  9
$PDSIZE
 40
0.0
  9
$PLINEWID
 40
0.0
  9
$COORDS
 70
     1
  9
$SPLFRAME
 70
     0
  9
$SPLINETYPE
 70
     6
  9
$SPLINESEGS
 70
     8
  9
$ATTDIA
 70
     1
  9
$ATTREQ
 70
     1
  9
$HANDLING
 70
     1
  9
$HANDSEED
  5
B9
  9
$SURFTAB1
 70
     6
  9
$SURFTAB2
 70
     6
  9
$SURFTYPE
 70
     6
  9
$SURFU
 70
     6
  9
$SURFV
 70
     6
  9
$UCSNAME
  2

  9
$UCSORG
 10
0.0
 20
0.0
 30
0.0
  9
$UCSXDIR
 10
1.0
 20
0.0
 30
0.0
  9
$UCSYDIR
 10
0.0
 20
1.0
 30
0.0
  9
$PUCSNAME
  2

  9
$PUCSORG
 10
0.0
 20
0.0
 30
0.0
  9
$PUCSXDIR
 10
1.0
 20
0.0
 30
0.0
  9
$PUCSYDIR
 10
0.0
 20
1.0
 30
0.0
  9
$USERI1
 70
     0
  9
$USERI2
 70
     0
  9
$USERI3
 70
     0
  9
$USERI4
 70
     0
  9
$USERI5
 70
     0
  9
$USERR1
 40
0.0
  9
$USERR2
 40
0.0
  9
$USERR3
 40
0.0
  9
$USERR4
 40
0.0
  9
$USERR5
 40
0.0
  9
$WORLDVIEW
 70
     1
  9
$SHADEDGE
 70
     3
  9
$SHADEDIF
 70
    70
  9
$TILEMODE
 70
     1
  9
$MAXACTVP
 70
    64
  9
$PLIMCHECK
 70
     0
  9
$PEXTMIN
 10
100000000000000000000.0
 20
100000000000000000000.0
 30
100000000000000000000.0
  9
$PEXTMAX
 10
-100000000000000000000.0
 20
-100000000000000000000.0
 30
-100000000000000000000.0
  9
$PLIMMIN
 10
0.0
 20
0.0
  9
$PLIMMAX
 10
12.0
 20
9.0
  9
$UNITMODE
 70
     0
  9
$VISRETAIN
 70
     1
  9
$PLINEGEN
 70
     0
  9
$PSLTSCALE
 70
     1
  0
ENDSEC
  0
SECTION
  2
TABLES
  0
TABLE
  2
APPID
100
AcDbSymbolTable
 70
     0
  0
APPID
  5
1
100
AcDbSymbolTableRecord
100
AcDbRegAppTableRecord
  2
ACAD
 70
     0
  0
APPID
  5
2
100
AcDbSymbolTableRecord
100
AcDbRegAppTableRecord
  2
ACADANNOTATIVE
 70
     0
  0
APPID
  5
4
100
AcDbSymbolTableRecord
100
AcDbRegAppTableRecord
  2
ACAD_MLEADERVER
 70
     0
  0
APPID
  5
3
100
AcDbSymbolTableRecord
100
AcDbRegAppTableRecord
  2
ACAD_NAV_VCDISPLAY
 70
     0
  0
ENDTAB
  0
TABLE
  2
DIMSTYLE
100
AcDbSymbolTable
 70
     0
  0
DIMSTYLE
  5
A
100
AcDbSymbolTableRecord
100
AcDbDimStyleTableRecord
  2
ANNOTATIVE
 70
     0
  3

  4

  6

  7

 40
1.0
 41
0.18
 42
0.0625
 43
0.38
 44
0.18
 45
0.0
 46
0.0
 47
0.0
 48
0.0
 71
     0
 72
     0
 73
     1
 74
     1
 75
     0
 76
     0
 77
     0
 78
     0
140
0.18
141
0.09
142
0.0
143
25.4
144
1.0
145
0.0
146
1.0
147
0.09
170
     0
171
     2
172
     0
173
     0
174
     0
175
     0
176
     0
177
     0
178
     0
  0
DIMSTYLE
  5
9
100
AcDbSymbolTableRecord
100
AcDbDimStyleTableRecord
  2
STANDARD
 70
     0
  3

  4

  6

  7

 40
1.0
 41
0.18
 42
0.0625
 43
0.38
 44
0.18
 45
0.0
 46
0.0
 47
0.0
 48
0.0
 71
     0
 72
     0
 73
     1
 74
     1
 75
     0
 76
     0
 77
     0
 78
     0
140
0.18
141
0.09
142
0.0
143
25.4
144
1.0
145
0.0
146
1.0
147
0.09
170
     0
171
     2
172
     0
173
     0
174
     0
175
     0
176
     0
177
     0
178
     0
  0
ENDTAB
  0
TABLE
  2
LTYPE
100
AcDbSymbolTable
 70
     0
  0
LTYPE
  5
C
100
AcDbSymbolTableRecord
100
AcDbLinetypeTableRecord
  2
BYBLOCK
 70
     0
  3

 72
    65
 73
     0
 40
0.0
  0
LTYPE
  5
B
100
AcDbSymbolTableRecord
100
AcDbLinetypeTableRecord
  2
BYLAYER
 70
     0
  3

 72
    65
 73
     0
 40
0.0
  0
LTYPE
  5
8
100
AcDbSymbolTableRecord
100
AcDbLinetypeTableRecord
  2
CONTINUOUS
 70
     0
  3

 72
    65
 73
     0
 40
0.0
  0
ENDTAB
  0
TABLE
  2
LAYER
100
AcDbSymbolTable
 70
     0
  0
LAYER
  5
7
100
AcDbSymbolTableRecord
100
AcDbLayerTableRecord
  2
0
 70
     0
 62
     7
  6
CONTINUOUS
  0
LAYER
  5
10
100
AcDbSymbolTableRecord
100
AcDbLayerTableRecord
  2
PANEL
 70
     0
 62
   200
  6
CONTINUOUS
  0
LAYER
  5
17
100
AcDbSymbolTableRecord
100
AcDbLayerTableRecord
  2
SAW
 70
     0
 62
    30
  6
CONTINUOUS
  0
LAYER
  5
1E
100
AcDbSymbolTableRecord
100
AcDbLayerTableRecord
  2
TOP
 70
     0
 62
     4
  6
CONTINUOUS
  0
LAYER
  5
44
100
AcDbSymbolTableRecord
100
AcDbLayerTableRecord
  2
raw_panel
 70
     0
 62
     8
  6
CONTINUOUS
  0
LAYER
  5
4B
100
AcDbSymbolTableRecord
100
AcDbLayerTableRecord
  2
close
 70
     0
 62
     5
  6
CONTINUOUS
  0
LAYER
  5
61
100
AcDbSymbolTableRecord
100
AcDbLayerTableRecord
  2
measure
 70
     0
 62
     3
  6
CONTINUOUS
  0
LAYER
  5
6E
100
AcDbSymbolTableRecord
100
AcDbLayerTableRecord
  2
holes
 70
     0
 62
     4
  6
CONTINUOUS
  0
ENDTAB
  0
TABLE
  2
STYLE
100
AcDbSymbolTable
 70
     0
  0
STYLE
  5
E
100
AcDbSymbolTableRecord
100
AcDbTextStyleTableRecord
  2
ANNOTATIVE
 70
     0
 40
0.0
 41
1.0
 50
0.0
 71
     0
 42
0.2
  3
txt
  4

  0
STYLE
  5
D
100
AcDbSymbolTableRecord
100
AcDbTextStyleTableRecord
  2
STANDARD
 70
     0
 40
0.0
 41
1.0
 50
0.0
 71
     0
 42
0.2
  3
txt
  4

  0
ENDTAB
  0
TABLE
  2
VPORT
100
AcDbSymbolTable
 70
     0
  0
VPORT
  5
F
100
AcDbSymbolTableRecord
100
AcDbViewportTableRecord
  2
*ACTIVE
 70
     0
 10
0.0
 20
0.0
 11
1.0
 21
1.0
 12
0.0
 22
0.0
 13
0.0
 23
0.0
 14
1.0
 24
1.0
 15
1.0
 25
1.0
 16
0.0
 26
0.0
 36
1.0
 17
0.0
 27
0.0
 37
0.0
 40
1.0
 41
1.0
 42
50.0
 43
0.0
 44
0.0
 50
0.0
 51
0.0
 71
     0
 72
  1000
 73
     1
 74
     3
 75
     0
 76
     0
 77
     0
 78
     0
  0
ENDTAB
  0
ENDSEC
  0
SECTION
  2
ENTITIES
  0
POLYLINE
  5
15
  8
PANEL
 66
     1
 10
0.0
 20
0.0
 30
0.0
 39
18.0
 70
     1
  0
VERTEX
  5
11
  8
0
100
AcDbVertex
 10
-0.400024414062
 20
-2.0
 30
0.0
 70
     0
 50
0.0
  0
VERTEX
  5
12
  8
0
100
AcDbVertex
 10
1571.599975585938
 20
-2.0
 30
0.0
 70
     0
 50
0.0
  0
VERTEX
  5
13
  8
0
100
AcDbVertex
 10
1571.599975585938
 20
628.0
 30
0.0
 70
     0
 50
0.0
  0
VERTEX
  5
14
  8
0
100
AcDbVertex
 10
-0.400024414062
 20
628.0
 30
0.0
 70
     0
 50
0.0
  0
SEQEND
  5
16
  0
POLYLINE
  5
1C
  8
SAW
 66
     1
 10
0.0
 20
0.0
 30
0.0
 39
8.0
 70
     1
  0
VERTEX
  5
18
  8
0
100
AcDbVertex
 10
8.099975585938
 20
617.0
 30
0.0
 70
     0
 50
0.0
  0
VERTEX
  5
19
  8
0
100
AcDbVertex
 10
1491.099975585938
 20
617.0
 30
0.0
 70
     0
 50
0.0
  0
VERTEX
  5
1A
  8
0
100
AcDbVertex
 10
1491.099975585938
 20
620.0
 30
0.0
 70
     0
 50
0.0
  0
VERTEX
  5
1B
  8
0
100
AcDbVertex
 10
8.099975585938
 20
620.0
 30
0.0
 70
     0
 50
0.0
  0
SEQEND
  5
1D
  0
CIRCLE
  5
1F
  8
TOP
 39
14.5
 10
1490.599975585938
 20
588.0
 30
0.0
 40
3.999980578221
  0
CIRCLE
  5
20
  8
TOP
 39
14.5
 10
8.599975585938
 20
588.0
 30
0.0
 40
4.000530923154
  0
CIRCLE
  5
21
  8
TOP
 39
14.5
 10
8.599975585938
 20
560.0
 30
0.0
 40
2.500808116768
  0
CIRCLE
  5
22
  8
TOP
 39
14.5
 10
1490.599975585938
 20
560.0
 30
0.0
 40
2.500022927566
  0
CIRCLE
  5
23
  8
TOP
 39
14.5
 10
1490.599975585938
 20
532.0
 30
0.0
 40
3.999980578221
  0
CIRCLE
  5
24
  8
TOP
 39
14.5
 10
8.599975585938
 20
532.0
 30
0.0
 40
4.000530923154
  0
CIRCLE
  5
25
  8
TOP
 39
14.5
 10
822.949975585938
 20
387.0
 30
0.0
 40
1.000011965409
  0
CIRCLE
  5
26
  8
TOP
 39
14.5
 10
222.95
 20
387.0
 30
0.0
 40
1.000456450514
  0
CIRCLE
  5
27
  8
TOP
 39
14.5
 10
472.95
 20
387.0
 30
0.0
 40
1.000456450514
  0
CIRCLE
  5
28
  8
TOP
 39
14.5
 10
1454.949974060059
 20
387.0
 30
0.0
 40
1.000021480289
  0
CIRCLE
  5
29
  8
TOP
 39
14.5
 10
572.949975585938
 20
387.0
 30
0.0
 40
1.000011965409
  0
CIRCLE
  5
2A
  8
TOP
 39
14.5
 10
1072.949969482422
 20
387.0
 30
0.0
 40
1.000027943565
  0
CIRCLE
  5
2B
  8
TOP
 39
14.5
 10
572.949975585938
 20
259.0
 30
0.0
 40
1.000009749148
  0
CIRCLE
  5
2C
  8
TOP
 39
14.5
 10
222.95
 20
259.0
 30
0.0
 40
1.00045423317
  0
CIRCLE
  5
2D
  8
TOP
 39
14.5
 10
1072.949969482422
 20
259.0
 30
0.0
 40
1.000025727245
  0
CIRCLE
  5
2E
  8
TOP
 39
14.5
 10
822.949975585938
 20
259.0
 30
0.0
 40
1.000009749148
  0
CIRCLE
  5
2F
  8
TOP
 39
14.5
 10
472.95
 20
259.0
 30
0.0
 40
1.00045423317
  0
CIRCLE
  5
30
  8
TOP
 39
14.5
 10
1454.949974060059
 20
259.0
 30
0.0
 40
1.000019263991
  0
CIRCLE
  5
31
  8
TOP
 39
14.5
 10
572.949975585938
 20
99.0
 30
0.0
 40
1.000009749148
  0
CIRCLE
  5
32
  8
TOP
 39
14.5
 10
1454.949974060059
 20
99.0
 30
0.0
 40
1.000019263991
  0
CIRCLE
  5
33
  8
TOP
 39
14.5
 10
222.95
 20
99.0
 30
0.0
 40
1.00045423317
  0
CIRCLE
  5
34
  8
TOP
 39
14.5
 10
472.95
 20
99.0
 30
0.0
 40
1.00045423317
  0
CIRCLE
  5
35
  8
TOP
 39
14.5
 10
822.949975585938
 20
99.0
 30
0.0
 40
1.000009749148
  0
CIRCLE
  5
36
  8
TOP
 39
14.5
 10
1072.949969482422
 20
99.0
 30
0.0
 40
1.000025727245
  0
CIRCLE
  5
37
  8
TOP
 39
14.5
 10
8.599975585938
 20
94.0
 30
0.0
 40
4.000390701949
  0
CIRCLE
  5
38
  8
TOP
 39
14.5
 10
1490.599975585938
 20
94.0
 30
0.0
 40
3.999840318428
  0
CIRCLE
  5
39
  8
TOP
 39
14.5
 10
1490.599975585938
 20
66.0
 30
0.0
 40
2.500095759442
  0
CIRCLE
  5
3A
  8
TOP
 39
14.5
 10
8.599975585938
 20
66.0
 30
0.0
 40
2.500880902926
  0
CIRCLE
  5
3B
  8
TOP
 39
14.5
 10
8.599975585938
 20
38.0
 30
0.0
 40
4.000390701949
  0
CIRCLE
  5
3C
  8
TOP
 39
14.5
 10
1490.599975585938
 20
38.0
 30
0.0
 40
3.999840318428
  0
CIRCLE
  5
3D
  8
TOP
 39
14.5
 10
1454.949974060059
 20
35.0
 30
0.0
 40
1.000019263991
  0
CIRCLE
  5
3E
  8
TOP
 39
14.5
 10
222.95
 20
35.0
 30
0.0
 40
1.00045423317
  0
CIRCLE
  5
3F
  8
TOP
 39
14.5
 10
572.949975585938
 20
35.0
 30
0.0
 40
1.000009749148
  0
CIRCLE
  5
40
  8
TOP
 39
14.5
 10
472.95
 20
35.0
 30
0.0
 40
1.00045423317
  0
CIRCLE
  5
41
  8
TOP
 39
14.5
 10
1072.949969482422
 20
35.0
 30
0.0
 40
1.000025727245
  0
CIRCLE
  5
42
  8
TOP
 39
14.5
 10
822.949975585938
 20
35.0
 30
0.0
 40
1.000009749148
  0
CIRCLE
  5
43
  8
TOP
 39
14.5
 10
1535.599975585938
 20
25.0
 30
0.0
 40
3.999840318428
  0
POLYLINE
  5
49
  8
raw_panel
 66
     1
 10
0.0
 20
0.0
 30
0.0
 70
     1
  0
VERTEX
  5
45
  8
0
100
AcDbVertex
 10
0.0
 20
0.0
 30
0.0
 70
     0
 50
0.0
  0
VERTEX
  5
46
  8
0
100
AcDbVertex
 10
1569.599975585938
 20
0.0
 30
0.0
 70
     0
 50
0.0
  0
VERTEX
  5
47
  8
0
100
AcDbVertex
 10
1569.599975585938
 20
628.0
 30
0.0
 70
     0
 50
0.0
  0
VERTEX
  5
48
  8
0
100
AcDbVertex
 10
0.0
 20
628.0
 30
0.0
 70
     0
 50
0.0
  0
SEQEND
  5
4A
  0
POLYLINE
  5
50
  8
close
 66
     1
 10
0.0
 20
0.0
 30
0.0
 70
     1
  0
VERTEX
  5
4C
  8
0
100
AcDbVertex
 10
-0.400024414062
 20
-2.0
 30
0.0
 70
     0
 50
0.0
  0
VERTEX
  5
4D
  8
0
100
AcDbVertex
 10
1571.599975585938
 20
-2.0
 30
0.0
 70
     0
 50
0.0
  0
VERTEX
  5
4E
  8
0
100
AcDbVertex
 10
1571.599975585938
 20
0.000024414063
 30
0.0
 70
     0
 50
0.0
  0
VERTEX
  5
4F
  8
0
100
AcDbVertex
 10
-0.400024414062
 20
0.000024414063
 30
0.0
 70
     0
 50
0.0
  0
SEQEND
  5
51
  0
TEXT
  5
52
  8
close
 10
785.599975585938
 20
-49.101123595506
 30
0.0
 40
23.550561797753
  1
FRONT: 2.00mm
 72
     1
 11
785.599975585938
 21
-49.101123595506
 31
0.0
 73
     2
  0
POLYLINE
  5
57
  8
close
 66
     1
 10
0.0
 20
0.0
 30
0.0
 70
     1
  0
VERTEX
  5
53
  8
0
100
AcDbVertex
 10
-0.400024414062
 20
-2.0
 30
0.0
 70
     0
 50
0.0
  0
VERTEX
  5
54
  8
0
100
AcDbVertex
 10
0.000024414062
 20
-2.0
 30
0.0
 70
     0
 50
0.0
  0
VERTEX
  5
55
  8
0
100
AcDbVertex
 10
0.000024414062
 20
628.0
 30
0.0
 70
     0
 50
0.0
  0
VERTEX
  5
56
  8
0
100
AcDbVertex
 10
-0.400024414062
 20
628.0
 30
0.0
 70
     0
 50
0.0
  0
SEQEND
  5
58
  0
TEXT
  5
59
  8
close
 10
-47.501148009568
 20
313.0
 30
0.0
 40
23.550561797753
  1
LEFT: 0.40mm
 72
     1
 11
-47.501148009568
 21
313.0
 31
0.0
 73
     2
  0
POLYLINE
  5
5E
  8
close
 66
     1
 10
0.0
 20
0.0
 30
0.0
 70
     1
  0
VERTEX
  5
5A
  8
0
100
AcDbVertex
 10
1569.59998562336
 20
-2.0
 30
0.0
 70
     0
 50
0.0
  0
VERTEX
  5
5B
  8
0
100
AcDbVertex
 10
1571.599975585938
 20
-2.0
 30
0.0
 70
     0
 50
0.0
  0
VERTEX
  5
5C
  8
0
100
AcDbVertex
 10
1571.599975585938
 20
628.0
 30
0.0
 70
     0
 50
0.0
  0
VERTEX
  5
5D
  8
0
100
AcDbVertex
 10
1569.59998562336
 20
628.0
 30
0.0
 70
     0
 50
0.0
  0
SEQEND
  5
5F
  0
TEXT
  5
60
  8
close
 10
1618.701099181443
 20
313.0
 30
0.0
 40
23.550561797753
  1
RIGHT: 2.00mm
 72
     1
 11
1618.701099181443
 21
313.0
 31
0.0
 73
     2
  0
LINE
  5
62
  8
measure
 10
-0.400024414062
 20
-2.0
 30
0.0
 11
-0.400024414062
 21
-96.202247191011
 31
0.0
  0
LINE
  5
63
  8
measure
 10
1571.599975585938
 20
-2.0
 30
0.0
 11
1571.599975585938
 21
-96.202247191011
 31
0.0
  0
LINE
  5
64
  8
measure
 10
-0.400024414062
 20
-84.426966292135
 30
0.0
 11
1571.599975585938
 21
-84.426966292135
 31
0.0
  0
LINE
  5
65
  8
measure
 10
-0.400024414062
 20
-96.202247191011
 30
0.0
 11
-0.400024414062
 21
-72.651685393258
 31
0.0
  0
LINE
  5
66
  8
measure
 10
1571.599975585938
 20
-96.202247191011
 30
0.0
 11
1571.599975585938
 21
-72.651685393258
 31
0.0
  0
TEXT
  5
67
  8
measure
 10
785.599975585938
 20
-105.622471910112
 30
0.0
 40
23.550561797753
  1
1572
 72
     1
 11
785.599975585938
 21
-105.622471910112
 31
0.0
 73
     2
  0
LINE
  5
68
  8
measure
 10
-0.400024414062
 20
-2.0
 30
0.0
 11
-94.602271605074
 21
-2.0
 31
0.0
  0
LINE
  5
69
  8
measure
 10
-0.400024414062
 20
628.0
 30
0.0
 11
-94.602271605074
 21
628.0
 31
0.0
  0
LINE
  5
6A
  8
measure
 10
-82.826990706197
 20
-2.0
 30
0.0
 11
-82.826990706197
 21
628.0
 31
0.0
  0
LINE
  5
6B
  8
measure
 10
-94.602271605074
 20
-2.0
 30
0.0
 11
-71.051709807321
 21
-2.0
 31
0.0
  0
LINE
  5
6C
  8
measure
 10
-94.602271605074
 20
628.0
 30
0.0
 11
-71.051709807321
 21
628.0
 31
0.0
  0
TEXT
  5
6D
  8
measure
 10
-104.022496324175
 20
313.0
 30
0.0
 40
23.550561797753
  1
630
 50
90.0
 72
     1
 11
-104.022496324175
 21
313.0
 31
0.0
 73
     2
  0
LINE
  5
6F
  8
holes
 10
1490.599975585938
 20
588.0
 30
0.0
 11
1494.599956164159
 21
588.0
 31
0.0
  0
TEXT
  5
70
  8
holes
 10
1490.599975585938
 20
613.195486196199
 30
0.0
 40
23.550561797753
  1
\U+23008.0
 72
     1
 11
1490.599975585938
 21
613.195486196199
 31
0.0
 73
     2
  0
LINE
  5
71
  8
holes
 10
8.599975585938
 20
588.0
 30
0.0
 11
12.600506509092
 21
588.0
 31
0.0
  0
TEXT
  5
72
  8
holes
 10
8.599975585938
 20
613.196036541132
 30
0.0
 40
23.550561797753
  1
\U+23008.0
 72
     1
 11
8.599975585938
 21
613.196036541132
 31
0.0
 73
     2
  0
LINE
  5
73
  8
holes
 10
8.599975585938
 20
560.0
 30
0.0
 11
11.100783702705
 21
560.0
 31
0.0
  0
TEXT
  5
74
  8
holes
 10
8.599975585938
 20
583.696313734745
 30
0.0
 40
23.550561797753
  1
\U+23005.0
 72
     1
 11
8.599975585938
 21
583.696313734745
 31
0.0
 73
     2
  0
LINE
  5
75
  8
holes
 10
1490.599975585938
 20
560.0
 30
0.0
 11
1493.099998513504
 21
560.0
 31
0.0
  0
TEXT
  5
76
  8
holes
 10
1490.599975585938
 20
583.695528545544
 30
0.0
 40
23.550561797753
  1
\U+23005.0
 72
     1
 11
1490.599975585938
 21
583.695528545544
 31
0.0
 73
     2
  0
LINE
  5
77
  8
holes
 10
1490.599975585938
 20
532.0
 30
0.0
 11
1494.599956164159
 21
532.0
 31
0.0
  0
TEXT
  5
78
  8
holes
 10
1490.599975585938
 20
557.195486196199
 30
0.0
 40
23.550561797753
  1
\U+23008.0
 72
     1
 11
1490.599975585938
 21
557.195486196199
 31
0.0
 73
     2
  0
LINE
  5
79
  8
holes
 10
8.599975585938
 20
532.0
 30
0.0
 11
12.600506509092
 21
532.0
 31
0.0
  0
TEXT
  5
7A
  8
holes
 10
8.599975585938
 20
557.196036541132
 30
0.0
 40
23.550561797753
  1
\U+23008.0
 72
     1
 11
8.599975585938
 21
557.196036541132
 31
0.0
 73
     2
  0
LINE
  5
7B
  8
holes
 10
822.949975585938
 20
387.0
 30
0.0
 11
823.949987551346
 21
387.0
 31
0.0
  0
TEXT
  5
7C
  8
holes
 10
822.949975585938
 20
409.195517583386
 30
0.0
 40
23.550561797753
  1
\U+23002.0
 72
     1
 11
822.949975585938
 21
409.195517583386
 31
0.0
 73
     2
  0
LINE
  5
7D
  8
holes
 10
222.95
 20
387.0
 30
0.0
 11
223.950456450515
 21
387.0
 31
0.0
  0
TEXT
  5
7E
  8
holes
 10
222.95
 20
409.195962068492
 30
0.0
 40
23.550561797753
  1
\U+23002.0
 72
     1
 11
222.95
 21
409.195962068492
 31
0.0
 73
     2
  0
LINE
  5
7F
  8
holes
 10
472.95
 20
387.0
 30
0.0
 11
473.950456450514
 21
387.0
 31
0.0
  0
TEXT
  5
80
  8
holes
 10
472.95
 20
409.195962068492
 30
0.0
 40
23.550561797753
  1
\U+23002.0
 72
     1
 11
472.95
 21
409.195962068492
 31
0.0
 73
     2
  0
LINE
  5
81
  8
holes
 10
1454.949974060059
 20
387.0
 30
0.0
 11
1455.949995540348
 21
387.0
 31
0.0
  0
TEXT
  5
82
  8
holes
 10
1454.949974060059
 20
409.195527098266
 30
0.0
 40
23.550561797753
  1
\U+23002.0
 72
     1
 11
1454.949974060059
 21
409.195527098266
 31
0.0
 73
     2
  0
LINE
  5
83
  8
holes
 10
572.949975585938
 20
387.0
 30
0.0
 11
573.949987551346
 21
387.0
 31
0.0
  0
TEXT
  5
84
  8
holes
 10
572.949975585938
 20
409.195517583386
 30
0.0
 40
23.550561797753
  1
\U+23002.0
 72
     1
 11
572.949975585938
 21
409.195517583386
 31
0.0
 73
     2
  0
LINE
  5
85
  8
holes
 10
1072.949969482422
 20
387.0
 30
0.0
 11
1073.949997425987
 21
387.0
 31
0.0
  0
TEXT
  5
86
  8
holes
 10
1072.949969482422
 20
409.195533561543
 30
0.0
 40
23.550561797753
  1
\U+23002.0
 72
     1
 11
1072.949969482422
 21
409.195533561543
 31
0.0
 73
     2
  0
LINE
  5
87
  8
holes
 10
572.949975585938
 20
259.0
 30
0.0
 11
573.949985335086
 21
259.0
 31
0.0
  0
TEXT
  5
88
  8
holes
 10
572.949975585938
 20
281.195515367126
 30
0.0
 40
23.550561797753
  1
\U+23002.0
 72
     1
 11
572.949975585938
 21
281.195515367126
 31
0.0
 73
     2
  0
LINE
  5
89
  8
holes
 10
222.95
 20
259.0
 30
0.0
 11
223.95045423317
 21
259.0
 31
0.0
  0
TEXT
  5
8A
  8
holes
 10
222.95
 20
281.195959851147
 30
0.0
 40
23.550561797753
  1
\U+23002.0
 72
     1
 11
222.95
 21
281.195959851147
 31
0.0
 73
     2
  0
LINE
  5
8B
  8
holes
 10
1072.949969482422
 20
259.0
 30
0.0
 11
1073.949995209667
 21
259.0
 31
0.0
  0
TEXT
  5
8C
  8
holes
 10
1072.949969482422
 20
281.195531345222
 30
0.0
 40
23.550561797753
  1
\U+23002.0
 72
     1
 11
1072.949969482422
 21
281.195531345222
 31
0.0
 73
     2
  0
LINE
  5
8D
  8
holes
 10
822.949975585938
 20
259.0
 30
0.0
 11
823.949985335086
 21
259.0
 31
0.0
  0
TEXT
  5
8E
  8
holes
 10
822.949975585938
 20
281.195515367126
 30
0.0
 40
23.550561797753
  1
\U+23002.0
 72
     1
 11
822.949975585938
 21
281.195515367126
 31
0.0
 73
     2
  0
LINE
  5
8F
  8
holes
 10
472.95
 20
259.0
 30
0.0
 11
473.95045423317
 21
259.0
 31
0.0
  0
TEXT
  5
90
  8
holes
 10
472.95
 20
281.195959851147
 30
0.0
 40
23.550561797753
  1
\U+23002.0
 72
     1
 11
472.95
 21
281.195959851147
 31
0.0
 73
     2
  0
LINE
  5
91
  8
holes
 10
1454.949974060059
 20
259.0
 30
0.0
 11
1455.94999332405
 21
259.0
 31
0.0
  0
TEXT
  5
92
  8
holes
 10
1454.949974060059
 20
281.195524881969
 30
0.0
 40
23.550561797753
  1
\U+23002.0
 72
     1
 11
1454.949974060059
 21
281.195524881969
 31
0.0
 73
     2
  0
LINE
  5
93
  8
holes
 10
572.949975585938
 20
99.0
 30
0.0
 11
573.949985335086
 21
99.0
 31
0.0
  0
TEXT
  5
94
  8
holes
 10
572.949975585938
 20
121.195515367126
 30
0.0
 40
23.550561797753
  1
\U+23002.0
 72
     1
 11
572.949975585938
 21
121.195515367126
 31
0.0
 73
     2
  0
LINE
  5
95
  8
holes
 10
1454.949974060059
 20
99.0
 30
0.0
 11
1455.94999332405
 21
99.0
 31
0.0
  0
TEXT
  5
96
  8
holes
 10
1454.949974060059
 20
121.195524881969
 30
0.0
 40
23.550561797753
  1
\U+23002.0
 72
     1
 11
1454.949974060059
 21
121.195524881969
 31
0.0
 73
     2
  0
LINE
  5
97
  8
holes
 10
222.95
 20
99.0
 30
0.0
 11
223.95045423317
 21
99.0
 31
0.0
  0
TEXT
  5
98
  8
holes
 10
222.95
 20
121.195959851147
 30
0.0
 40
23.550561797753
  1
\U+23002.0
 72
     1
 11
222.95
 21
121.195959851147
 31
0.0
 73
     2
  0
LINE
  5
99
  8
holes
 10
472.95
 20
99.0
 30
0.0
 11
473.95045423317
 21
99.0
 31
0.0
  0
TEXT
  5
9A
  8
holes
 10
472.95
 20
121.195959851147
 30
0.0
 40
23.550561797753
  1
\U+23002.0
 72
     1
 11
472.95
 21
121.195959851147
 31
0.0
 73
     2
  0
LINE
  5
9B
  8
holes
 10
822.949975585938
 20
99.0
 30
0.0
 11
823.949985335086
 21
99.0
 31
0.0
  0
TEXT
  5
9C
  8
holes
 10
822.949975585938
 20
121.195515367126
 30
0.0
 40
23.550561797753
  1
\U+23002.0
 72
     1
 11
822.949975585938
 21
121.195515367126
 31
0.0
 73
     2
  0
LINE
  5
9D
  8
holes
 10
1072.949969482422
 20
99.0
 30
0.0
 11
1073.949995209667
 21
99.0
 31
0.0
  0
TEXT
  5
9E
  8
holes
 10
1072.949969482422
 20
121.195531345222
 30
0.0
 40
23.550561797753
  1
\U+23002.0
 72
     1
 11
1072.949969482422
 21
121.195531345222
 31
0.0
 73
     2
  0
LINE
  5
9F
  8
holes
 10
8.599975585938
 20
94.0
 30
0.0
 11
12.600366287887
 21
94.0
 31
0.0
  0
TEXT
  5
A0
  8
holes
 10
8.599975585938
 20
119.195896319927
 30
0.0
 40
23.550561797753
  1
\U+23008.0
 72
     1
 11
8.599975585938
 21
119.195896319927
 31
0.0
 73
     2
  0
LINE
  5
A1
  8
holes
 10
1490.599975585938
 20
94.0
 30
0.0
 11
1494.599815904366
 21
94.0
 31
0.0
  0
TEXT
  5
A2
  8
holes
 10
1490.599975585938
 20
119.195345936406
 30
0.0
 40
23.550561797753
  1
\U+23008.0
 72
     1
 11
1490.599975585938
 21
119.195345936406
 31
0.0
 73
     2
  0
LINE
  5
A3
  8
holes
 10
1490.599975585938
 20
66.0
 30
0.0
 11
1493.100071345379
 21
66.0
 31
0.0
  0
TEXT
  5
A4
  8
holes
 10
1490.599975585938
 20
89.695601377419
 30
0.0
 40
23.550561797753
  1
\U+23005.0
 72
     1
 11
1490.599975585938
 21
89.695601377419
 31
0.0
 73
     2
  0
LINE
  5
A5
  8
holes
 10
8.599975585938
 20
66.0
 30
0.0
 11
11.100856488864
 21
66.0
 31
0.0
  0
TEXT
  5
A6
  8
holes
 10
8.599975585938
 20
89.696386520904
 30
0.0
 40
23.550561797753
  1
\U+23005.0
 72
     1
 11
8.599975585938
 21
89.696386520904
 31
0.0
 73
     2
  0
LINE
  5
A7
  8
holes
 10
8.599975585938
 20
38.0
 30
0.0
 11
12.600366287887
 21
38.0
 31
0.0
  0
TEXT
  5
A8
  8
holes
 10
8.599975585938
 20
63.195896319927
 30
0.0
 40
23.550561797753
  1
\U+23008.0
 72
     1
 11
8.599975585938
 21
63.195896319927
 31
0.0
 73
     2
  0
LINE
  5
A9
  8
holes
 10
1490.599975585938
 20
38.0
 30
0.0
 11
1494.599815904366
 21
38.0
 31
0.0
  0
TEXT
  5
AA
  8
holes
 10
1490.599975585938
 20
63.195345936406
 30
0.0
 40
23.550561797753
  1
\U+23008.0
 72
     1
 11
1490.599975585938
 21
63.195345936406
 31
0.0
 73
     2
  0
LINE
  5
AB
  8
holes
 10
1454.949974060059
 20
35.0
 30
0.0
 11
1455.94999332405
 21
35.0
 31
0.0
  0
TEXT
  5
AC
  8
holes
 10
1454.949974060059
 20
57.195524881969
 30
0.0
 40
23.550561797753
  1
\U+23002.0
 72
     1
 11
1454.949974060059
 21
57.195524881969
 31
0.0
 73
     2
  0
LINE
  5
AD
  8
holes
 10
222.95
 20
35.0
 30
0.0
 11
223.95045423317
 21
35.0
 31
0.0
  0
TEXT
  5
AE
  8
holes
 10
222.95
 20
57.195959851147
 30
0.0
 40
23.550561797753
  1
\U+23002.0
 72
     1
 11
222.95
 21
57.195959851147
 31
0.0
 73
     2
  0
LINE
  5
AF
  8
holes
 10
572.949975585938
 20
35.0
 30
0.0
 11
573.949985335086
 21
35.0
 31
0.0
  0
TEXT
  5
B0
  8
holes
 10
572.949975585938
 20
57.195515367126
 30
0.0
 40
23.550561797753
  1
\U+23002.0
 72
     1
 11
572.949975585938
 21
57.195515367126
 31
0.0
 73
     2
  0
LINE
  5
B1
  8
holes
 10
472.95
 20
35.0
 30
0.0
 11
473.95045423317
 21
35.0
 31
0.0
  0
TEXT
  5
B2
  8
holes
 10
472.95
 20
57.195959851147
 30
0.0
 40
23.550561797753
  1
\U+23002.0
 72
     1
 11
472.95
 21
57.195959851147
 31
0.0
 73
     2
  0
LINE
  5
B3
  8
holes
 10
1072.949969482422
 20
35.0
 30
0.0
 11
1073.949995209667
 21
35.0
 31
0.0
  0
TEXT
  5
B4
  8
holes
 10
1072.949969482422
 20
57.195531345222
 30
0.0
 40
23.550561797753
  1
\U+23002.0
 72
     1
 11
1072.949969482422
 21
57.195531345222
 31
0.0
 73
     2
  0
LINE
  5
B5
  8
holes
 10
822.949975585938
 20
35.0
 30
0.0
 11
823.949985335086
 21
35.0
 31
0.0
  0
TEXT
  5
B6
  8
holes
 10
822.949975585938
 20
57.195515367126
 30
0.0
 40
23.550561797753
  1
\U+23002.0
 72
     1
 11
822.949975585938
 21
57.195515367126
 31
0.0
 73
     2
  0
LINE
  5
B7
  8
holes
 10
1535.599975585938
 20
25.0
 30
0.0
 11
1539.599815904366
 21
25.0
 31
0.0
  0
TEXT
  5
B8
  8
holes
 10
1535.599975585938
 20
50.195345936406
 30
0.0
 40
23.550561797753
  1
\U+23008.0
 72
     1
 11
1535.599975585938
 21
50.195345936406
 31
0.0
 73
     2
  0
ENDSEC
  0
EOF
