<?xml version="1.0" standalone="no"?>
<!DOCTYPE svg PUBLIC "-//W3C//DTD SVG 1.1//EN" "http://www.w3.org/Graphics/SVG/1.1/DTD/svg11.dtd">
<svg width="1072mm" height="630mm" viewBox="-1072 0 1072 630" xmlns="http://www.w3.org/2000/svg" version="1.1">
<title>OpenSCAD Model</title>
<path d="
M 0,-0 L -1.89999,-0 L -1.89999,628 L 0,628 z
M -2,-0 L -1072,-0 L -1072,8 L -80.5,8 L -80.5,11 L -1072,11
 L -1072,36.0021 L -1045.5,36.0021 L -1045.5,43.9979 L -1072,43.9979 L -1072,64.0021 L -1052,64.0021
 L -1052,65.5021 L -1050.5,65.5021 L -1050.5,70.4979 L -1052,70.4979 L -1052,71.9979 L -1072,71.9979
 L -1072,92.0021 L -1045.5,92.0021 L -1045.5,99.9979 L -1072,99.9979 L -1072,548.002 L -1045.5,548.002
 L -1045.5,555.998 L -1072,555.998 L -1072,576.002 L -1052,576.002 L -1052,577.502 L -1050.5,577.502
 L -1050.5,582.498 L -1052,582.498 L -1052,583.998 L -1072,583.998 L -1072,604.002 L -1045.5,604.002
 L -1045.5,611.998 L -1072,611.998 L -1072,628 L -2,628 z
M -83.8284,42.8284 L -85,40 L -83.8284,37.1716 L -81,36 L -78.1716,37.1716 L -77,40
 L -78.1716,42.8284 L -81,44 z
M -1043.3,73.3033 L -1045.5,68 L -1043.3,62.6967 L -1038,60.5 L -1032.7,62.6967 L -1030.5,68
 L -1032.7,73.3033 L -1038,75.5 z
M -82.7678,69.7678 L -83.5,68 L -82.7678,66.2322 L -81,65.5 L -79.2322,66.2322 L -78.5,68
 L -79.2322,69.7678 L -81,70.5 z
M -83.8284,98.8284 L -85,96 L -83.8284,93.1716 L -81,92 L -78.1716,93.1716 L -77,96
 L -78.1716,98.8284 L -81,100 z
M -117.459,241.588 L -117.459,240.412 L -116.341,240.049 L -115.65,241 L -116.341,241.951 z
M -699.459,241.588 L -699.459,240.412 L -698.341,240.049 L -697.65,241 L -698.341,241.951 z
M -299.459,241.588 L -299.459,240.412 L -298.341,240.049 L -297.65,241 L -298.341,241.951 z
M -899.459,241.588 L -899.459,240.412 L -898.341,240.049 L -897.65,241 L -898.341,241.951 z
M -999.459,241.588 L -999.459,240.412 L -998.341,240.049 L -997.65,241 L -998.341,241.951 z
M -499.459,241.588 L -499.459,240.412 L -498.341,240.049 L -497.65,241 L -498.341,241.951 z
M -499.459,369.588 L -499.459,368.412 L -498.341,368.049 L -497.65,369 L -498.341,369.951 z
M -899.459,369.588 L -899.459,368.412 L -898.341,368.049 L -897.65,369 L -898.341,369.951 z
M -299.459,369.588 L -299.459,368.412 L -298.341,368.049 L -297.65,369 L -298.341,369.951 z
M -699.459,369.588 L -699.459,368.412 L -698.341,368.049 L -697.65,369 L -698.341,369.951 z
M -999.459,369.588 L -999.459,368.412 L -998.341,368.049 L -997.65,369 L -998.341,369.951 z
M -117.459,369.588 L -117.459,368.412 L -116.341,368.049 L -115.65,369 L -116.341,369.951 z
M -699.459,529.588 L -699.459,528.412 L -698.341,528.049 L -697.65,529 L -698.341,529.951 z
M -499.459,529.588 L -499.459,528.412 L -498.341,528.049 L -497.65,529 L -498.341,529.951 z
M -117.459,529.588 L -117.459,528.412 L -116.341,528.049 L -115.65,529 L -116.341,529.951 z
M -299.459,529.588 L -299.459,528.412 L -298.341,528.049 L -297.65,529 L -298.341,529.951 z
M -999.459,529.588 L -999.459,528.412 L -998.341,528.049 L -997.65,529 L -998.341,529.951 z
M -899.459,529.588 L -899.459,528.412 L -898.341,528.049 L -897.65,529 L -898.341,529.951 z
M -83.8284,536.828 L -85,534 L -83.8284,531.172 L -81,530 L -78.1716,531.172 L -77,534
 L -78.1716,536.828 L -81,538 z
M -82.7678,563.768 L -83.5,562 L -82.7678,560.232 L -81,559.5 L -79.2322,560.232 L -78.5,562
 L -79.2322,563.768 L -81,564.5 z
M -1043.3,585.303 L -1045.5,580 L -1043.3,574.697 L -1038,572.5 L -1032.7,574.697 L -1030.5,580
 L -1032.7,585.303 L -1038,587.5 z
M -83.8284,592.828 L -85,590 L -83.8284,587.172 L -81,586 L -78.1716,587.172 L -77,590
 L -78.1716,592.828 L -81,594 z
M -899.459,593.588 L -899.459,592.412 L -898.341,592.049 L -897.65,593 L -898.341,593.951 z
M -699.459,593.588 L -699.459,592.412 L -698.341,592.049 L -697.65,593 L -698.341,593.951 z
M -117.459,593.588 L -117.459,592.412 L -116.341,592.049 L -115.65,593 L -116.341,593.951 z
M -999.459,593.588 L -999.459,592.412 L -998.341,592.049 L -997.65,593 L -998.341,593.951 z
M -299.459,593.588 L -299.459,592.412 L -298.341,592.049 L -297.65,593 L -298.341,593.951 z
M -499.459,593.588 L -499.459,592.412 L -498.341,592.049 L -497.65,593 L -498.341,593.951 z
M -38.8284,605.828 L -40,603 L -38.8284,600.172 L -36,599 L -33.1716,600.172 L -32,603
 L -33.1716,605.828 L -36,607 z
M -2,628.1 L -1072,628.1 L -1072,630 L -2,630 z
" stroke="black" fill="lightgray" stroke-width="0.5"/>
</svg>
