<?xml version="1.0" standalone="no"?>
<!DOCTYPE svg PUBLIC "-//W3C//DTD SVG 1.1//EN" "http://www.w3.org/Graphics/SVG/1.1/DTD/svg11.dtd">
<svg width="798mm" height="1098mm" viewBox="1 473 798 1098" xmlns="http://www.w3.org/2000/svg" version="1.1">
<title>OpenSCAD Model</title>
<path d="
M 797,473 L 3,473 L 3,474.9 L 797,474.9 z
M 2.89999,475 L 1,475 L 1,719 L 2.89999,719 z
M 797,475 L 3,475 L 3,719 L 797,719 z
M 335,688.5 L 333.469,688.195 L 332.172,687.328 L 331.304,686.031 L 331,684.5 L 331,659.5
 L 331.304,657.969 L 332.172,656.672 L 333.469,655.805 L 335,655.5 L 465,655.5 L 466.531,655.805
 L 467.828,656.672 L 468.696,657.969 L 469,659.5 L 469,684.5 L 468.696,686.031 L 467.828,687.328
 L 466.531,688.195 L 465,688.5 z
M 337.768,673.768 L 338.5,672 L 337.768,670.232 L 336,669.5 L 334.232,670.232 L 333.5,672
 L 334.232,673.768 L 336,674.5 z
M 465.768,673.768 L 466.5,672 L 465.768,670.232 L 464,669.5 L 462.232,670.232 L 461.5,672
 L 462.232,673.768 L 464,674.5 z
M 799,475 L 797.1,475 L 797.1,719 L 799,719 z
M 797,719.1 L 3,719.1 L 3,721 L 797,721 z
M 797,723 L 3,723 L 3,724.9 L 797,724.9 z
M 2.89999,725 L 1,725 L 1,969 L 2.89999,969 z
M 799,725 L 797.1,725 L 797.1,969 L 799,969 z
M 797,725 L 3,725 L 3,969 L 797,969 z
M 335,938.5 L 333.469,938.195 L 332.172,937.328 L 331.304,936.031 L 331,934.5 L 331,909.5
 L 331.304,907.969 L 332.172,906.672 L 333.469,905.805 L 335,905.5 L 465,905.5 L 466.531,905.805
 L 467.828,906.672 L 468.696,907.969 L 469,909.5 L 469,934.5 L 468.696,936.031 L 467.828,937.328
 L 466.531,938.195 L 465,938.5 z
M 337.768,923.768 L 338.5,922 L 337.768,920.232 L 336,919.5 L 334.232,920.232 L 333.5,922
 L 334.232,923.768 L 336,924.5 z
M 465.768,923.768 L 466.5,922 L 465.768,920.232 L 464,919.5 L 462.232,920.232 L 461.5,922
 L 462.232,923.768 L 464,924.5 z
M 797,969.1 L 3,969.1 L 3,971 L 797,971 z
M 797,1073 L 3,1073 L 3,1074.9 L 797,1074.9 z
M 797,1075 L 3,1075 L 3,1319 L 797,1319 z
M 335,1288.5 L 333.469,1288.2 L 332.172,1287.33 L 331.304,1286.03 L 331,1284.5 L 331,1259.5
 L 331.304,1257.97 L 332.172,1256.67 L 333.469,1255.8 L 335,1255.5 L 465,1255.5 L 466.531,1255.8
 L 467.828,1256.67 L 468.696,1257.97 L 469,1259.5 L 469,1284.5 L 468.696,1286.03 L 467.828,1287.33
 L 466.531,1288.2 L 465,1288.5 z
M 337.768,1273.77 L 338.5,1272 L 337.768,1270.23 L 336,1269.5 L 334.232,1270.23 L 333.5,1272
 L 334.232,1273.77 L 336,1274.5 z
M 465.768,1273.77 L 466.5,1272 L 465.768,1270.23 L 464,1269.5 L 462.232,1270.23 L 461.5,1272
 L 462.232,1273.77 L 464,1274.5 z
M 2.89999,1075 L 1,1075 L 1,1319 L 2.89999,1319 z
M 799,1075 L 797.1,1075 L 797.1,1319 L 799,1319 z
M 797,1319.1 L 3,1319.1 L 3,1321 L 797,1321 z
M 797,1323 L 3,1323 L 3,1324.9 L 797,1324.9 z
M 799,1325 L 797.1,1325 L 797.1,1569 L 799,1569 z
M 2.89999,1325 L 1,1325 L 1,1569 L 2.89999,1569 z
M 797,1325 L 3,1325 L 3,1569 L 797,1569 z
M 335,1538.5 L 333.469,1538.2 L 332.172,1537.33 L 331.304,1536.03 L 331,1534.5 L 331,1509.5
 L 331.304,1507.97 L 332.172,1506.67 L 333.469,1505.8 L 335,1505.5 L 465,1505.5 L 466.531,1505.8
 L 467.828,1506.67 L 468.696,1507.97 L 469,1509.5 L 469,1534.5 L 468.696,1536.03 L 467.828,1537.33
 L 466.531,1538.2 L 465,1538.5 z
M 337.768,1523.77 L 338.5,1522 L 337.768,1520.23 L 336,1519.5 L 334.232,1520.23 L 333.5,1522
 L 334.232,1523.77 L 336,1524.5 z
M 465.768,1523.77 L 466.5,1522 L 465.768,1520.23 L 464,1519.5 L 462.232,1520.23 L 461.5,1522
 L 462.232,1523.77 L 464,1524.5 z
M 797,1569.1 L 3,1569.1 L 3,1571 L 797,1571 z
" stroke="black" fill="lightgray" stroke-width="0.5"/>
</svg>
