<?xml version="1.0" standalone="no"?>
<!DOCTYPE svg PUBLIC "-//W3C//DTD SVG 1.1//EN" "http://www.w3.org/Graphics/SVG/1.1/DTD/svg11.dtd">
<svg width="630mm" height="402mm" viewBox="800 2160 630 402" xmlns="http://www.w3.org/2000/svg" version="1.1">
<title>OpenSCAD Model</title>
<path d="
M 1430,2160 L 1428.1,2160 L 1428.1,2562 L 1430,2562 z
M 836.002,2535.5 L 843.998,2535.5 L 843.998,2562 L 864.002,2562 L 864.002,2542 L 865.502,2542
 L 865.502,2540.5 L 870.498,2540.5 L 870.498,2542 L 871.998,2542 L 871.998,2562 L 892.002,2562
 L 892.002,2535.5 L 899.998,2535.5 L 899.998,2562 L 1330,2562 L 1330,2535.5 L 1338,2535.5
 L 1338,2562 L 1358,2562 L 1358,2542 L 1359.5,2542 L 1359.5,2540.5 L 1364.5,2540.5
 L 1364.5,2542 L 1366,2542 L 1366,2562 L 1386,2562 L 1386,2535.5 L 1394,2535.5
 L 1394,2562 L 1427.46,2562 L 1427.46,2561.95 L 1428,2561.95 L 1428,2160.05 L 1427.46,2160.05
 L 1427.46,2160 L 1394,2160 L 1394,2186.5 L 1386,2186.5 L 1386,2160 L 1366,2160
 L 1366,2180 L 1364.5,2180 L 1364.5,2181.5 L 1359.5,2181.5 L 1359.5,2180 L 1358,2180
 L 1358,2160 L 1338,2160 L 1338,2186.5 L 1330,2186.5 L 1330,2160 L 899.998,2160
 L 899.998,2186.5 L 892.002,2186.5 L 892.002,2160 L 871.998,2160 L 871.998,2180 L 870.498,2180
 L 870.498,2181.5 L 865.502,2181.5 L 865.502,2180 L 864.002,2180 L 864.002,2160 L 843.998,2160
 L 843.998,2186.5 L 836.002,2186.5 L 836.002,2160 L 800,2160 L 800,2562 L 836.002,2562
 z
M 1356.7,2199.3 L 1354.5,2194 L 1356.7,2188.7 L 1362,2186.5 L 1367.3,2188.7 L 1369.5,2194
 L 1367.3,2199.3 L 1362,2201.5 z
M 862.697,2199.3 L 860.5,2194 L 862.697,2188.7 L 868,2186.5 L 873.303,2188.7 L 875.5,2194
 L 873.303,2199.3 L 868,2201.5 z
M 862.697,2533.3 L 860.5,2528 L 862.697,2522.7 L 868,2520.5 L 873.303,2522.7 L 875.5,2528
 L 873.303,2533.3 L 868,2535.5 z
M 1356.7,2533.3 L 1354.5,2528 L 1356.7,2522.7 L 1362,2520.5 L 1367.3,2522.7 L 1369.5,2528
 L 1367.3,2533.3 L 1362,2535.5 z
" stroke="black" fill="lightgray" stroke-width="0.5"/>
</svg>
