<?xml version="1.0" standalone="no"?>
<!DOCTYPE svg PUBLIC "-//W3C//DTD SVG 1.1//EN" "http://www.w3.org/Graphics/SVG/1.1/DTD/svg11.dtd">
<svg width="798mm" height="1006mm" viewBox="1 1573 798 1006" xmlns="http://www.w3.org/2000/svg" version="1.1">
<title>OpenSCAD Model</title>
<path d="
M 797,1573 L 403,1573 L 403,1574.9 L 797,1574.9 z
M 397,1573 L 3,1573 L 3,1574.9 L 397,1574.9 z
M 797,1575 L 403,1575 L 403,2577 L 797,2577 z
M 437.5,1755 L 435.969,1754.7 L 434.672,1753.83 L 433.804,1752.53 L 433.5,1751 L 433.5,1621
 L 433.804,1619.47 L 434.672,1618.17 L 435.969,1617.3 L 437.5,1617 L 462.5,1617 L 464.031,1617.3
 L 465.328,1618.17 L 466.196,1619.47 L 466.5,1621 L 466.5,1751 L 466.196,1752.53 L 465.328,1753.83
 L 464.031,1754.7 L 462.5,1755 z
M 451.768,1623.77 L 452.5,1622 L 451.768,1620.23 L 450,1619.5 L 448.232,1620.23 L 447.5,1622
 L 448.232,1623.77 L 450,1624.5 z
M 451.768,1751.77 L 452.5,1750 L 451.768,1748.23 L 450,1747.5 L 448.232,1748.23 L 447.5,1750
 L 448.232,1751.77 L 450,1752.5 z
M 774.671,1689.4 L 771.092,1688.64 L 767.75,1687.16 L 764.79,1685.01 L 762.342,1682.29 L 760.513,1679.12
 L 759.382,1675.64 L 759,1672 L 759.382,1668.36 L 760.513,1664.88 L 762.342,1661.71 L 764.79,1658.99
 L 767.75,1656.84 L 771.092,1655.36 L 774.671,1654.6 L 778.329,1654.6 L 781.908,1655.36 L 785.25,1656.84
 L 788.21,1658.99 L 790.658,1661.71 L 792.487,1664.88 L 793.618,1668.36 L 794,1672 L 793.618,1675.64
 L 792.487,1679.12 L 790.658,1682.29 L 788.21,1685.01 L 785.25,1687.16 L 781.908,1688.64 L 778.329,1689.4
 z
M 774.671,2497.4 L 771.092,2496.64 L 767.75,2495.16 L 764.79,2493.01 L 762.342,2490.29 L 760.513,2487.12
 L 759.382,2483.64 L 759,2480 L 759.382,2476.36 L 760.513,2472.88 L 762.342,2469.71 L 764.79,2466.99
 L 767.75,2464.84 L 771.092,2463.36 L 774.671,2462.6 L 778.329,2462.6 L 781.908,2463.36 L 785.25,2464.84
 L 788.21,2466.99 L 790.658,2469.71 L 792.487,2472.88 L 793.618,2476.36 L 794,2480 L 793.618,2483.64
 L 792.487,2487.12 L 790.658,2490.29 L 788.21,2493.01 L 785.25,2495.16 L 781.908,2496.64 L 778.329,2497.4
 z
M 397,1575 L 3,1575 L 3,2577 L 397,2577 z
M 337.5,1755 L 335.969,1754.7 L 334.672,1753.83 L 333.804,1752.53 L 333.5,1751 L 333.5,1621
 L 333.804,1619.47 L 334.672,1618.17 L 335.969,1617.3 L 337.5,1617 L 362.5,1617 L 364.031,1617.3
 L 365.328,1618.17 L 366.196,1619.47 L 366.5,1621 L 366.5,1751 L 366.196,1752.53 L 365.328,1753.83
 L 364.031,1754.7 L 362.5,1755 z
M 351.768,1623.77 L 352.5,1622 L 351.768,1620.23 L 350,1619.5 L 348.232,1620.23 L 347.5,1622
 L 348.232,1623.77 L 350,1624.5 z
M 351.768,1751.77 L 352.5,1750 L 351.768,1748.23 L 350,1747.5 L 348.232,1748.23 L 347.5,1750
 L 348.232,1751.77 L 350,1752.5 z
M 21.6707,1689.4 L 18.0922,1688.64 L 14.75,1687.16 L 11.7902,1685.01 L 9.34219,1682.29 L 7.51295,1679.12
 L 6.38242,1675.64 L 6,1672 L 6.38242,1668.36 L 7.51295,1664.88 L 9.34219,1661.71 L 11.7902,1658.99
 L 14.75,1656.84 L 18.0922,1655.36 L 21.6707,1654.6 L 25.3292,1654.6 L 28.9078,1655.36 L 32.25,1656.84
 L 35.2098,1658.99 L 37.6578,1661.71 L 39.487,1664.88 L 40.6176,1668.36 L 41,1672 L 40.6176,1675.64
 L 39.487,1679.12 L 37.6578,1682.29 L 35.2098,1685.01 L 32.25,1687.16 L 28.9078,1688.64 L 25.3292,1689.4
 z
M 21.6707,2497.4 L 18.0922,2496.64 L 14.75,2495.16 L 11.7902,2493.01 L 9.34219,2490.29 L 7.51295,2487.12
 L 6.38242,2483.64 L 6,2480 L 6.38242,2476.36 L 7.51295,2472.88 L 9.34219,2469.71 L 11.7902,2466.99
 L 14.75,2464.84 L 18.0922,2463.36 L 21.6707,2462.6 L 25.3292,2462.6 L 28.9078,2463.36 L 32.25,2464.84
 L 35.2098,2466.99 L 37.6578,2469.71 L 39.487,2472.88 L 40.6176,2476.36 L 41,2480 L 40.6176,2483.64
 L 39.487,2487.12 L 37.6578,2490.29 L 35.2098,2493.01 L 32.25,2495.16 L 28.9078,2496.64 L 25.3292,2497.4
 z
M 2.89999,1575 L 1,1575 L 1,2577 L 2.89999,2577 z
M 399,1575 L 397.1,1575 L 397.1,2577 L 399,2577 z
M 799,1575 L 797.1,1575 L 797.1,2577 L 799,2577 z
M 402.9,1575 L 401,1575 L 401,2577 L 402.9,2577 z
M 397,2577.1 L 3,2577.1 L 3,2579 L 397,2579 z
M 797,2577.1 L 403,2577.1 L 403,2579 L 797,2579 z
" stroke="black" fill="lightgray" stroke-width="0.5"/>
</svg>
