<?xml version="1.0" standalone="no"?>
<!DOCTYPE svg PUBLIC "-//W3C//DTD SVG 1.1//EN" "http://www.w3.org/Graphics/SVG/1.1/DTD/svg11.dtd">
<svg width="1572mm" height="630mm" viewBox="-1572 0 1572 630" xmlns="http://www.w3.org/2000/svg" version="1.1">
<title>OpenSCAD Model</title>
<path d="
M 0,-0 L -1.89999,-0 L -1.89999,628 L 0,628 z
M -2,-0 L -1571.6,-0 L -1571.6,628 L -2,628 z
M -1563.5,11 L -1563.5,8 L -80.5,8 L -80.5,11 z
M -83.8284,42.8284 L -85,40 L -83.8284,37.1716 L -81,36 L -78.1716,37.1716 L -77,40
 L -78.1716,42.8284 L -81,44 z
M -1565.83,42.8284 L -1567,40 L -1565.83,37.1716 L -1563,36 L -1560.17,37.1716 L -1559,40
 L -1560.17,42.8284 L -1563,44 z
M -1564.77,69.7678 L -1565.5,68 L -1564.77,66.2322 L -1563,65.5 L -1561.23,66.2322 L -1560.5,68
 L -1561.23,69.7678 L -1563,70.5 z
M -82.7678,69.7678 L -83.5,68 L -82.7678,66.2322 L -81,65.5 L -79.2322,66.2322 L -78.5,68
 L -79.2322,69.7678 L -81,70.5 z
M -83.8284,98.8284 L -85,96 L -83.8284,93.1716 L -81,92 L -78.1716,93.1716 L -77,96
 L -78.1716,98.8284 L -81,100 z
M -1565.83,98.8284 L -1567,96 L -1565.83,93.1716 L -1563,92 L -1560.17,93.1716 L -1559,96
 L -1560.17,98.8284 L -1563,100 z
M -749.459,241.588 L -749.459,240.412 L -748.341,240.049 L -747.65,241 L -748.341,241.951 z
M -1349.46,241.588 L -1349.46,240.412 L -1348.34,240.049 L -1347.65,241 L -1348.34,241.951 z
M -1099.46,241.588 L -1099.46,240.412 L -1098.34,240.049 L -1097.65,241 L -1098.34,241.951 z
M -117.459,241.588 L -117.459,240.412 L -116.341,240.049 L -115.65,241 L -116.341,241.951 z
M -999.459,241.588 L -999.459,240.412 L -998.341,240.049 L -997.65,241 L -998.341,241.951 z
M -499.459,241.588 L -499.459,240.412 L -498.341,240.049 L -497.65,241 L -498.341,241.951 z
M -999.459,369.588 L -999.459,368.412 L -998.341,368.049 L -997.65,369 L -998.341,369.951 z
M -1349.46,369.588 L -1349.46,368.412 L -1348.34,368.049 L -1347.65,369 L -1348.34,369.951 z
M -499.459,369.588 L -499.459,368.412 L -498.341,368.049 L -497.65,369 L -498.341,369.951 z
M -749.459,369.588 L -749.459,368.412 L -748.341,368.049 L -747.65,369 L -748.341,369.951 z
M -1099.46,369.588 L -1099.46,368.412 L -1098.34,368.049 L -1097.65,369 L -1098.34,369.951 z
M -117.459,369.588 L -117.459,368.412 L -116.341,368.049 L -115.65,369 L -116.341,369.951 z
M -999.459,529.588 L -999.459,528.412 L -998.341,528.049 L -997.65,529 L -998.341,529.951 z
M -117.459,529.588 L -117.459,528.412 L -116.341,528.049 L -115.65,529 L -116.341,529.951 z
M -1349.46,529.588 L -1349.46,528.412 L -1348.34,528.049 L -1347.65,529 L -1348.34,529.951 z
M -1099.46,529.588 L -1099.46,528.412 L -1098.34,528.049 L -1097.65,529 L -1098.34,529.951 z
M -749.459,529.588 L -749.459,528.412 L -748.341,528.049 L -747.65,529 L -748.341,529.951 z
M -499.459,529.588 L -499.459,528.412 L -498.341,528.049 L -497.65,529 L -498.341,529.951 z
M -1565.83,536.828 L -1567,534 L -1565.83,531.172 L -1563,530 L -1560.17,531.172 L -1559,534
 L -1560.17,536.828 L -1563,538 z
M -83.8284,536.828 L -85,534 L -83.8284,531.172 L -81,530 L -78.1716,531.172 L -77,534
 L -78.1716,536.828 L -81,538 z
M -82.7678,563.768 L -83.5,562 L -82.7678,560.232 L -81,559.5 L -79.2322,560.232 L -78.5,562
 L -79.2322,563.768 L -81,564.5 z
M -1564.77,563.768 L -1565.5,562 L -1564.77,560.232 L -1563,559.5 L -1561.23,560.232 L -1560.5,562
 L -1561.23,563.768 L -1563,564.5 z
M -1565.83,592.828 L -1567,590 L -1565.83,587.172 L -1563,586 L -1560.17,587.172 L -1559,590
 L -1560.17,592.828 L -1563,594 z
M -83.8284,592.828 L -85,590 L -83.8284,587.172 L -81,586 L -78.1716,587.172 L -77,590
 L -78.1716,592.828 L -81,594 z
M -117.459,593.588 L -117.459,592.412 L -116.341,592.049 L -115.65,593 L -116.341,593.951 z
M -1349.46,593.588 L -1349.46,592.412 L -1348.34,592.049 L -1347.65,593 L -1348.34,593.951 z
M -999.459,593.588 L -999.459,592.412 L -998.341,592.049 L -997.65,593 L -998.341,593.951 z
M -1099.46,593.588 L -1099.46,592.412 L -1098.34,592.049 L -1097.65,593 L -1098.34,593.951 z
M -499.459,593.588 L -499.459,592.412 L -498.341,592.049 L -497.65,593 L -498.341,593.951 z
M -749.459,593.588 L -749.459,592.412 L -748.341,592.049 L -747.65,593 L -748.341,593.951 z
M -38.8284,605.828 L -40,603 L -38.8284,600.172 L -36,599 L -33.1716,600.172 L -32,603
 L -33.1716,605.828 L -36,607 z
M -1571.7,-0 L -1572,-0 L -1572,628 L -1571.7,628 z
M -2,628.1 L -1571.6,628.1 L -1571.6,630 L -2,630 z
" stroke="black" fill="lightgray" stroke-width="0.5"/>
</svg>
