<?xml version="1.0" standalone="no"?>
<!DOCTYPE svg PUBLIC "-//W3C//DTD SVG 1.1//EN" "http://www.w3.org/Graphics/SVG/1.1/DTD/svg11.dtd">
<svg width="798mm" height="398mm" viewBox="1 73 798 398" xmlns="http://www.w3.org/2000/svg" version="1.1">
<title>OpenSCAD Model</title>
<path d="
M 797,73 L 3,73 L 3,74.9 L 797,74.9 z
M 799,75 L 797.1,75 L 797.1,469 L 799,469 z
M 2.89999,75 L 1,75 L 1,469 L 2.89999,469 z
M 797,75 L 3,75 L 3,469 L 797,469 z
M 335,438.5 L 333.469,438.196 L 332.172,437.328 L 331.304,436.031 L 331,434.5 L 331,409.5
 L 331.304,407.969 L 332.172,406.672 L 333.469,405.804 L 335,405.5 L 465,405.5 L 466.531,405.804
 L 467.828,406.672 L 468.696,407.969 L 469,409.5 L 469,434.5 L 468.696,436.031 L 467.828,437.328
 L 466.531,438.196 L 465,438.5 z
M 465.768,423.768 L 466.5,422 L 465.768,420.232 L 464,419.5 L 462.232,420.232 L 461.5,422
 L 462.232,423.768 L 464,424.5 z
M 337.768,423.768 L 338.5,422 L 337.768,420.232 L 336,419.5 L 334.232,420.232 L 333.5,422
 L 334.232,423.768 L 336,424.5 z
M 797,469.1 L 3,469.1 L 3,471 L 797,471 z
" stroke="black" fill="lightgray" stroke-width="0.5"/>
</svg>
