<?xml version="1.0" standalone="no"?>
<!DOCTYPE svg PUBLIC "-//W3C//DTD SVG 1.1//EN" "http://www.w3.org/Graphics/SVG/1.1/DTD/svg11.dtd">
<svg width="1598mm" height="198mm" viewBox="1 873 1598 198" xmlns="http://www.w3.org/2000/svg" version="1.1">
<title>OpenSCAD Model</title>
<path d="
M 1597,873 L 803,873 L 803,874.9 L 1597,874.9 z
M 802.9,875 L 801,875 L 801,969 L 802.9,969 z
M 1599,875 L 1597.1,875 L 1597.1,969 L 1599,969 z
M 1597,875 L 803,875 L 803,969 L 1597,969 z
M 1135,938.5 L 1133.47,938.195 L 1132.17,937.328 L 1131.3,936.031 L 1131,934.5 L 1131,909.5
 L 1131.3,907.969 L 1132.17,906.672 L 1133.47,905.805 L 1135,905.5 L 1265,905.5 L 1266.53,905.805
 L 1267.83,906.672 L 1268.7,907.969 L 1269,909.5 L 1269,934.5 L 1268.7,936.031 L 1267.83,937.328
 L 1266.53,938.195 L 1265,938.5 z
M 1137.77,923.768 L 1138.5,922 L 1137.77,920.232 L 1136,919.5 L 1134.23,920.232 L 1133.5,922
 L 1134.23,923.768 L 1136,924.5 z
M 1265.77,923.768 L 1266.5,922 L 1265.77,920.232 L 1264,919.5 L 1262.23,920.232 L 1261.5,922
 L 1262.23,923.768 L 1264,924.5 z
M 1597,969.1 L 803,969.1 L 803,971 L 1597,971 z
M 1597,973 L 803,973 L 803,974.9 L 1597,974.9 z
M 797,973 L 3,973 L 3,974.9 L 797,974.9 z
M 1597,975 L 803,975 L 803,1069 L 1597,1069 z
M 1135,1038.5 L 1133.47,1038.2 L 1132.17,1037.33 L 1131.3,1036.03 L 1131,1034.5 L 1131,1009.5
 L 1131.3,1007.97 L 1132.17,1006.67 L 1133.47,1005.8 L 1135,1005.5 L 1265,1005.5 L 1266.53,1005.8
 L 1267.83,1006.67 L 1268.7,1007.97 L 1269,1009.5 L 1269,1034.5 L 1268.7,1036.03 L 1267.83,1037.33
 L 1266.53,1038.2 L 1265,1038.5 z
M 1265.77,1023.77 L 1266.5,1022 L 1265.77,1020.23 L 1264,1019.5 L 1262.23,1020.23 L 1261.5,1022
 L 1262.23,1023.77 L 1264,1024.5 z
M 1137.77,1023.77 L 1138.5,1022 L 1137.77,1020.23 L 1136,1019.5 L 1134.23,1020.23 L 1133.5,1022
 L 1134.23,1023.77 L 1136,1024.5 z
M 797,975 L 3,975 L 3,1069 L 797,1069 z
M 335,1038.5 L 333.469,1038.2 L 332.172,1037.33 L 331.304,1036.03 L 331,1034.5 L 331,1009.5
 L 331.304,1007.97 L 332.172,1006.67 L 333.469,1005.8 L 335,1005.5 L 465,1005.5 L 466.531,1005.8
 L 467.828,1006.67 L 468.696,1007.97 L 469,1009.5 L 469,1034.5 L 468.696,1036.03 L 467.828,1037.33
 L 466.531,1038.2 L 465,1038.5 z
M 337.768,1023.77 L 338.5,1022 L 337.768,1020.23 L 336,1019.5 L 334.232,1020.23 L 333.5,1022
 L 334.232,1023.77 L 336,1024.5 z
M 465.768,1023.77 L 466.5,1022 L 465.768,1020.23 L 464,1019.5 L 462.232,1020.23 L 461.5,1022
 L 462.232,1023.77 L 464,1024.5 z
M 802.9,975 L 801,975 L 801,1069 L 802.9,1069 z
M 799,975 L 797.1,975 L 797.1,1069 L 799,1069 z
M 2.89999,975 L 1,975 L 1,1069 L 2.89999,1069 z
M 1599,975 L 1597.1,975 L 1597.1,1069 L 1599,1069 z
M 1597,1069.1 L 803,1069.1 L 803,1071 L 1597,1071 z
M 797,1069.1 L 3,1069.1 L 3,1071 L 797,1071 z
" stroke="black" fill="lightgray" stroke-width="0.5"/>
</svg>
