<?xml version="1.0" standalone="no"?>
<!DOCTYPE svg PUBLIC "-//W3C//DTD SVG 1.1//EN" "http://www.w3.org/Graphics/SVG/1.1/DTD/svg11.dtd">
<svg width="800mm" height="648mm" viewBox="800 -648 800 648" xmlns="http://www.w3.org/2000/svg" version="1.1">
<title>OpenSCAD Model</title>
<path d="
M 1598,-648 L 802,-648 L 802,-646.1 L 1598,-646.1 z
M 1600,-646 L 1598.1,-646 L 1598.1,-0 L 1600,-0 z
M 1598,-646 L 802,-646 L 802,-0 L 1598,-0 z
M 1588.17,-605.172 L 1587,-608 L 1588.17,-610.828 L 1591,-612 L 1593.83,-610.828 L 1595,-608
 L 1593.83,-605.172 L 1591,-604 z
M 806.172,-605.172 L 805,-608 L 806.172,-610.828 L 809,-612 L 811.828,-610.828 L 813,-608
 L 811.828,-605.172 L 809,-604 z
M 807.232,-578.232 L 806.5,-580 L 807.232,-581.768 L 809,-582.5 L 810.768,-581.768 L 811.5,-580
 L 810.768,-578.232 L 809,-577.5 z
M 1589.23,-578.232 L 1588.5,-580 L 1589.23,-581.768 L 1591,-582.5 L 1592.77,-581.768 L 1593.5,-580
 L 1592.77,-578.232 L 1591,-577.5 z
M 1588.17,-549.172 L 1587,-552 L 1588.17,-554.828 L 1591,-556 L 1593.83,-554.828 L 1595,-552
 L 1593.83,-549.172 L 1591,-548 z
M 806.172,-549.172 L 805,-552 L 806.172,-554.828 L 809,-556 L 811.828,-554.828 L 813,-552
 L 811.828,-549.172 L 809,-548 z
M 806.172,-93.1716 L 805,-96 L 806.172,-98.8284 L 809,-100 L 811.828,-98.8284 L 813,-96
 L 811.828,-93.1716 L 809,-92 z
M 1588.17,-93.1716 L 1587,-96 L 1588.17,-98.8284 L 1591,-100 L 1593.83,-98.8284 L 1595,-96
 L 1593.83,-93.1716 L 1591,-92 z
M 807.232,-66.2322 L 806.5,-68 L 807.232,-69.7678 L 809,-70.5 L 810.768,-69.7678 L 811.5,-68
 L 810.768,-66.2322 L 809,-65.5 z
M 1589.23,-66.2322 L 1588.5,-68 L 1589.23,-69.7678 L 1591,-70.5 L 1592.77,-69.7678 L 1593.5,-68
 L 1592.77,-66.2322 L 1591,-65.5 z
M 806.172,-37.1716 L 805,-40 L 806.172,-42.8284 L 809,-44 L 811.828,-42.8284 L 813,-40
 L 811.828,-37.1716 L 809,-36 z
M 1588.17,-37.1716 L 1587,-40 L 1588.17,-42.8284 L 1591,-44 L 1593.83,-42.8284 L 1595,-40
 L 1593.83,-37.1716 L 1591,-36 z
M 808.5,-8 L 808.5,-11 L 1591.5,-11 L 1591.5,-8 z
M 801.9,-646 L 800,-646 L 800,-0 L 801.9,-0 z
" stroke="black" fill="lightgray" stroke-width="0.5"/>
</svg>
